<?xml version="1.0" encoding="utf-8"?>
<!-- Generator: Adobe Illustrator 22.0.0, SVG Export Plug-In . SVG Version: 6.00 Build 0)  -->
<svg version="1.1" id="圖層_1" xmlns="http://www.w3.org/2000/svg" xmlns:xlink="http://www.w3.org/1999/xlink" x="0px" y="0px"
	 viewBox="0 0 200 200" style="enable-background:new 0 0 200 200;" xml:space="preserve">
<style type="text/css">
	.st0{fill:#E84947;}
	.st1{clip-path:url(#SVGID_2_);fill:#FFFFFF;}
	.st2{clip-path:url(#SVGID_4_);fill:#FFFFFF;}
	.st3{fill:#FFFFFF;}
</style>
<g id="圖層_2_1_">
	<path class="st0" d="M164,180.5H36c-8.8,0-16-7.2-16-16v-128c0-8.8,7.2-16,16-16h128c8.8,0,16,7.2,16,16v128
		C180,173.3,172.8,180.5,164,180.5z"/>
	<g>
		<g>
			<g>
				<defs>
					<rect id="SVGID_1_" x="44" y="38.9" width="112" height="122.4"/>
				</defs>
				<clipPath id="SVGID_2_">
					<use xlink:href="#SVGID_1_"  style="overflow:visible;"/>
				</clipPath>
				<path class="st1" d="M153.6,78.9L153.6,78.9L153.6,78.9L153.6,78.9z"/>
			</g>
			<g>
				<defs>
					<rect id="SVGID_3_" x="44" y="38.9" width="112" height="122.4"/>
				</defs>
				<clipPath id="SVGID_4_">
					<use xlink:href="#SVGID_3_"  style="overflow:visible;"/>
				</clipPath>
				<path class="st2" d="M152.8,43.7c-2.4-0.8-4,0.8-4.8,2.4v4.8c-4.8-4.8-12-9.6-20.8-11.2c-2.4-0.8-4,0.8-4.8,3.2s0.8,4,3.2,4.8
					c10.4,2.4,17.6,9.6,21.6,13.6c0.8,0.8,2.4,1.6,4,1.6s2.4-1.6,3.2-2.4l1.6-12C156,46.9,155.2,44.5,152.8,43.7L152.8,43.7z
					 M74.4,153.3c-10.4-2.4-17.6-9.6-21.6-13.6c-0.8-0.8-2.4-1.6-4-1.6s-2.4,1.6-3.2,2.4L44,151.7c-0.8,2.4,0.8,4,2.4,4.8
					c2.4,0.8,4-0.8,4.8-2.4l0.8-4c4.8,4.8,12,9.6,20.8,11.2h0.8c1.6,0,3.2-1.6,4-3.2C78.4,155.7,76.8,154.1,74.4,153.3L74.4,153.3z
					 M52,120.5h70.4c4,0,7.2-3.2,7.2-7.2V62.9c0-4-3.2-7.2-7.2-7.2H52c-4,0-7.2,3.2-7.2,7.2v49.6C44,116.5,47.2,120.5,52,120.5
					L52,120.5z M73.6,79.7h4.8L72,73.3c-1.6-1.6-1.6-4,0-5.6s4-1.6,5.6,0l9.6,9.6l9.6-9.6c1.6-1.6,4-1.6,5.6,0s1.6,4,0,5.6L96,79.7
					h4c2.4,0,4,1.6,4,4s-1.6,4-4,4h-9.6v3.2h9.6c2.4,0,4,1.6,4,4s-1.6,4-4,4h-8.8v8.8c0,2.4-1.6,4-4,4s-4-1.6-4-4v-8.8h-8.8
					c-2.4,0-4-1.6-4-4s1.6-4,4-4h8.8v-3.2h-9.6c-2.4,0-4-1.6-4-4C70.4,81.3,72,79.7,73.6,79.7L73.6,79.7z"/>
			</g>
		</g>
		<path class="st3" d="M147.2,79.7h-4.8c-4,0-7.2,3.2-7.2,7.2v30.4c0,4-3.2,7.2-7.2,7.2H77.6c-4,0-7.2,3.2-7.2,7.2v4.8
			c0,4,3.2,7.2,7.2,7.2H148c4,0,7.2-3.2,7.2-7.2V86.1C155.2,82.9,152,79.7,147.2,79.7L147.2,79.7z"/>
	</g>
</g>
</svg>
