<?xml version="1.0" standalone="no"?><!DOCTYPE svg PUBLIC "-//W3C//DTD SVG 1.1//EN" "http://www.w3.org/Graphics/SVG/1.1/DTD/svg11.dtd"><svg t="1573799455923" class="icon" viewBox="0 0 1024 1024" version="1.1" xmlns="http://www.w3.org/2000/svg" p-id="7767" xmlns:xlink="http://www.w3.org/1999/xlink" width="200" height="200"><defs><style type="text/css"></style></defs><path d="M180.28544 365.66528s130.07872-175.84128 342.39488-66.54464c0 0 108.34944-73.28256 244.992-69.6064 15.91808 0.41984 124.5696-0.8704 161.1008 51.3792 18.26816 25.97376 16.20992 58.5728-14.67904 83.9168 0 0-147.35872-114.74432-509.83424-5.02784 0 0-52.44928-27.94496-120.09984-23.27552-63.02208 4.41344-103.87456 29.1584-103.87456 29.1584z" fill="#6FBA2C" p-id="7768"></path><path d="M874.71104 794.61888L1018.88 496.82432s-73.6-206.60736-463.08864-153.35936C207.06816 391.26528 5.12 631.17824 5.12 631.17824s230.1184-154.4704 523.66336-72.20736c243.0464 68.41344 345.92768 235.648 345.92768 235.648z" fill="#00428E" p-id="7769"></path></svg>