<?xml version="1.0" standalone="no"?><!DOCTYPE svg PUBLIC "-//W3C//DTD SVG 1.1//EN" "http://www.w3.org/Graphics/SVG/1.1/DTD/svg11.dtd"><svg t="1573799302205" class="icon" viewBox="0 0 1325 1024" version="1.1" xmlns="http://www.w3.org/2000/svg" p-id="4640" xmlns:xlink="http://www.w3.org/1999/xlink" width="258.7890625" height="200"><defs><style type="text/css"></style></defs><path d="M483.388235 164.141176c-9.035294-3.011765-12.047059-6.023529-6.023529-15.058823 0-12.047059 3.011765-18.070588 12.047059-21.082353C540.611765 105.411765 599.341176 90.352941 665.6 90.352941c63.247059 0 121.976471 15.058824 176.188235 39.152941 9.035294 6.023529 12.047059 12.047059 12.047059 21.082353 0 6.023529-3.011765 12.047059-12.047059 15.058824-63.247059 24.094118-128 91.858824-128 170.164706v596.329411c-15.058824 3.011765-33.129412 3.011765-48.188235 3.011765s-33.129412-4.517647-48.188235-4.517647V334.305882c0-76.8-64.752941-146.070588-134.02353-170.164706zM552.658824 918.588235c-30.117647-9.035294-57.223529-18.070588-81.317648-33.129411V242.447059c48.188235 21.082353 81.317647 69.270588 81.317648 128V918.588235z m301.17647-33.129411c-24.094118 15.058824-54.211765 24.094118-81.317647 33.129411V370.447059c0-57.223529 33.129412-106.917647 81.317647-128v643.011765zM328.282353 436.705882c-3.011765 0-6.023529 3.011765-15.058824 9.035294-15.058824 18.070588-24.094118 45.176471-24.094117 70.776471 0 27.105882 9.035294 51.2 24.094117 70.776471 6.023529 0 3.011765 3.011765 9.035295 3.011764s9.035294-6.023529 9.035294-9.035294c9.035294-24.094118 30.117647-45.176471 54.211764-45.17647 9.035294 0 18.070588 6.023529 21.082353 9.035294v301.17647c-99.388235-76.8-165.647059-195.764706-165.647059-332.8s66.258824-256 170.164706-334.305882v301.176471c-6.023529 6.023529-12.047059 9.035294-21.082353 9.035294-27.105882 0-45.176471-21.082353-54.211764-45.176471 1.505882-4.517647-4.517647-7.529412-7.529412-7.529412zM1054.117647 534.588235c12.047059 0 21.082353 9.035294 27.105882 33.129412v15.058824c-18.070588 106.917647-75.294118 203.294118-158.117647 268.047058V185.223529c90.352941 69.270588 149.082353 170.164706 161.129412 286.117647-3.011765 12.047059-15.058824 21.082353-27.105882 21.082353-27.105882 0-45.176471-21.082353-54.211765-45.17647 0-6.023529-6.023529-9.035294-9.035294-9.035294-6.023529 0-9.035294 3.011765-9.035294 3.011764-15.058824 18.070588-24.094118 45.176471-24.094118 70.776471 0 27.105882 9.035294 51.2 21.082353 70.776471 6.023529 0 3.011765 3.011765 9.035294 3.011764s9.035294-6.023529 9.035294-9.035294c9.035294-21.082353 30.117647-42.164706 54.211765-42.164706z" fill="#D7000F" p-id="4641"></path></svg>