<?xml version="1.0" standalone="no"?><!DOCTYPE svg PUBLIC "-//W3C//DTD SVG 1.1//EN" "http://www.w3.org/Graphics/SVG/1.1/DTD/svg11.dtd"><svg t="1573799344101" class="icon" viewBox="0 0 1325 1024" version="1.1" xmlns="http://www.w3.org/2000/svg" p-id="5448" xmlns:xlink="http://www.w3.org/1999/xlink" width="258.7890625" height="200"><defs><style type="text/css"></style></defs><path d="M816.188235 411.105882l3.011765-3.011764c64.752941-52.705882 141.552941-48.188235 167.152941-43.670589-10.541176-30.117647-57.223529-131.011765-194.258823-131.011764-61.741176 0-118.964706 28.611765-158.117647 76.8-25.6 33.129412-42.164706 72.282353-45.176471 114.447059-10.541176 120.470588-75.294118 177.694118-82.823529 183.717647-46.682353 40.658824-109.929412 57.223529-170.164706 45.17647 12.047059 31.623529 63.247059 135.529412 200.282353 131.011765 54.211765-1.505882 105.411765-24.094118 143.058823-63.247059 45.176471-45.176471 54.211765-114.447059 55.717647-135.529412 10.541176-102.4 60.235294-155.105882 81.317647-174.682353M1159.529412 216.847059c0-15.058824-7.529412-28.611765-18.070588-37.647059l-106.917648-82.823529s-21.082353-18.070588-21.082352 9.035294v338.823529c0 58.729412-25.6 115.952941-70.776471 155.105882-52.705882 45.176471-121.976471 66.258824-189.741177 55.717648 15.058824 31.623529 73.788235 131.011765 204.8 131.011764 120.470588 0 201.788235-106.917647 201.788236-206.305882V216.847059M382.494118 418.635294c52.705882-45.176471 121.976471-66.258824 189.741176-55.717647-15.058824-31.623529-73.788235-131.011765-204.8-131.011765-120.470588 0-201.788235 106.917647-201.788235 206.305883v368.941176c0 15.058824 6.023529 28.611765 18.070588 37.647059l106.917647 82.823529s21.082353 18.070588 21.082353-9.035294V582.776471v-9.035295c0-60.235294 25.6-115.952941 70.776471-155.105882" fill="#074195" p-id="5449"></path></svg>