<svg xmlns="http://www.w3.org/2000/svg" xmlns:xlink="http://www.w3.org/1999/xlink" width="14" height="10" viewBox="0 0 14 10">
  <defs>
    <clipPath id="clip-path">
      <rect id="Rectangle_174" data-name="Rectangle 174" width="14" height="10" transform="translate(106 399)" fill="#c2c2c2"/>
    </clipPath>
  </defs>
  <g id="bubble" transform="translate(-106 -399)" clip-path="url(#clip-path)">
    <g id="Path_676" data-name="Path 676" transform="translate(34.642 26.263)" fill="#e4e8f6">
      <path d="M 81.97580718994141 383.23681640625 L 71.86286926269531 383.23681640625 C 71.8577880859375 382.6710510253906 71.85343933105469 381.6541137695313 71.86876678466797 380.3838500976563 C 71.94938659667969 377.5426635742188 72.80118560791016 375.4486694335938 73.45668029785156 374.2438354492188 C 73.68563079833984 375.7843933105469 74.35169982910156 378.1935119628906 76.27745819091797 380.0324401855469 C 77.80419921875 381.4903564453125 80.09175109863281 382.5481872558594 81.97580718994141 383.23681640625 Z" stroke="none"/>
      <path d="M 79.49803161621094 382.73681640625 C 78.20201873779297 382.1127014160156 76.91714477539063 381.3346252441406 75.93215942382813 380.39404296875 C 74.45696258544922 378.9853820800781 73.68397521972656 377.2608337402344 73.27957153320313 375.8025817871094 C 72.82861328125 376.9538269042969 72.42299652099609 378.4979553222656 72.36869049072266 380.3940124511719 C 72.35722351074219 381.34619140625 72.35684967041016 382.1553039550781 72.35952758789063 382.73681640625 L 79.49803161621094 382.73681640625 M 85.35808563232422 383.73681640625 L 71.36885833740234 383.73681640625 C 71.36885833740234 383.73681640625 71.34461975097656 382.3773803710938 71.36885833740234 380.3737182617188 C 71.50601196289063 375.4921875 73.83869171142578 372.73681640625 73.83869171142578 372.73681640625 C 73.83869171142578 372.73681640625 73.74291229248047 376.9208374023438 76.62277221679688 379.6708374023438 C 79.50261688232422 382.4208374023438 85.35808563232422 383.73681640625 85.35808563232422 383.73681640625 Z" stroke="none" fill="#c2c2c2"/>
    </g>
  </g>
</svg>
