<svg xmlns="http://www.w3.org/2000/svg" width="30" height="22.5" viewBox="0 0 30 22.5">
  <g id="Group_3293" data-name="Group 3293" transform="translate(-376.473 -27.848)">
    <path id="Path_11486" data-name="Path 11486" d="M406.093,36.716l-2.227,2.82a16.12,16.12,0,0,1,2.217,4.038,1.824,1.824,0,0,1-.682,2.2,1.282,1.282,0,0,1-1.8-.83,13.1,13.1,0,0,0-24.518,0,1.276,1.276,0,0,1-1.8.83,1.824,1.824,0,0,1-.682-2.2,16.121,16.121,0,0,1,2.43-4.335l-1.995-2.524a1.926,1.926,0,0,1,.037-2.347,1.239,1.239,0,0,1,.946-.463,1.259,1.259,0,0,1,.983.509l2.108,2.669a15.9,15.9,0,0,1,2.421-1.745l-1.461-3.206a1.861,1.861,0,0,1,.531-2.255,1.193,1.193,0,0,1,.66-.208,1.348,1.348,0,0,1,1.195.855l1.635,3.588a15.291,15.291,0,0,1,3.89-.863V29.507a1.39,1.39,0,1,1,2.728,0v3.742a15.3,15.3,0,0,1,4.266,1.018l1.706-3.743a1.347,1.347,0,0,1,1.194-.855,1.193,1.193,0,0,1,.66.208,1.86,1.86,0,0,1,.53,2.255L399.5,35.547a15.984,15.984,0,0,1,2.343,1.759l2.283-2.892a1.258,1.258,0,0,1,.983-.509,1.232,1.232,0,0,1,.944.463A1.923,1.923,0,0,1,406.093,36.716Z" transform="translate(0 0)" fill="#f09478"/>
    <circle id="Ellipse_34365" data-name="Ellipse 34365" cx="5.533" cy="5.533" r="5.533" transform="translate(385.94 39.281)" fill="#f09478"/>
  </g>
</svg>
