<?xml version="1.0" encoding="utf-8"?>
<!-- Generator: Adobe Illustrator 22.0.1, SVG Export Plug-In . SVG Version: 6.00 Build 0)  -->
<svg version="1.1" id="圖層_1" xmlns="http://www.w3.org/2000/svg" xmlns:xlink="http://www.w3.org/1999/xlink" x="0px" y="0px"
	 viewBox="0 0 17.7 23.5" style="enable-background:new 0 0 17.7 23.5;" xml:space="preserve">
<style type="text/css">
	.st0{fill:#FFFFFF;}
</style>
<path class="st0" d="M16.9,0H0.8C0.3,0,0,0.3,0,0.8v22c0,0.4,0.3,0.8,0.8,0.8h16.2c0.4,0,0.8-0.3,0.8-0.8v-22
	C17.7,0.3,17.3,0,16.9,0z M16.2,1.5v5.2c-1.5,0.9-3.2,1.5-4.9,1.8c-0.5-0.9-1.4-1.5-2.4-1.5c-1.1,0-2,0.6-2.5,1.5
	C4.7,8.3,3,7.8,1.5,6.9V1.5H16.2z M1.5,22V8.6C3,9.3,4.5,9.8,6.1,10c0.1,1.4,1.3,2.6,2.8,2.6c1.5,0,2.7-1.2,2.8-2.6
	c1.6-0.3,3.1-0.8,4.6-1.5V22H1.5z"/>
</svg>
