<svg xmlns="http://www.w3.org/2000/svg" width="14" height="16" viewBox="0 0 14 16">
  <path id="Path_11485" data-name="Path 11485" d="M38.5,16a.525.525,0,0,1-.275-.072.535.535,0,0,1-.275-.467V8.467L33.061,3.182a.565.565,0,0,1-.147-.36V.539A.535.535,0,0,1,33.464,0h12.9a.535.535,0,0,1,.55.539V2.822a.529.529,0,0,1-.147.36L41.875,8.467v5.411a.535.535,0,0,1-.275.467l-2.822,1.582A.525.525,0,0,1,38.5,16ZM34.013,2.607l4.893,5.267a.565.565,0,0,1,.147.36v6.274l1.723-.971V8.252a.529.529,0,0,1,.147-.36l4.893-5.285V1.079h-11.8Z" transform="translate(-32.914)" fill="#1185e0"/>
</svg>
