<?xml version="1.0" encoding="utf-8"?>
<!-- Generator: Adobe Illustrator 22.0.1, SVG Export Plug-In . SVG Version: 6.00 Build 0)  -->
<svg version="1.1" id="圖層_1" xmlns="http://www.w3.org/2000/svg" xmlns:xlink="http://www.w3.org/1999/xlink" x="0px" y="0px"
	 viewBox="0 0 30 22.5" style="enable-background:new 0 0 30 22.5;" xml:space="preserve">
<style type="text/css">
	.st0{fill:#FFFFFF;}
</style>
<g id="Group_3293" transform="translate(-376.473 -27.848)">
	<path id="Path_11486" class="st0" d="M406.1,36.7l-2.2,2.8c0.9,1.2,1.7,2.6,2.2,4c0.3,0.8,0,1.7-0.7,2.2c-0.6,0.3-1.4,0-1.7-0.6
		c0-0.1-0.1-0.2-0.1-0.2c-2.6-6.8-10.1-10.2-16.9-7.6c-3.5,1.3-6.3,4.1-7.6,7.6c-0.2,0.7-0.9,1.1-1.6,0.9c-0.1,0-0.2-0.1-0.2-0.1
		c-0.7-0.5-1-1.4-0.7-2.2c0.6-1.6,1.4-3,2.4-4.3l-2-2.5c-0.5-0.7-0.5-1.7,0-2.3c0.2-0.3,0.6-0.5,0.9-0.5c0.4,0,0.8,0.2,1,0.5
		l2.1,2.7c0.8-0.7,1.6-1.2,2.4-1.7l-1.5-3.2c-0.4-0.8-0.1-1.7,0.5-2.3c0.2-0.1,0.4-0.2,0.7-0.2c0.5,0,1,0.4,1.2,0.9l1.6,3.6
		c1.3-0.5,2.6-0.7,3.9-0.9v-3.7c-0.1-0.8,0.3-1.5,1.1-1.6s1.5,0.3,1.6,1.1c0,0.2,0,0.4,0,0.5v3.7c1.5,0.1,2.9,0.5,4.3,1l1.7-3.7
		c0.2-0.5,0.7-0.8,1.2-0.9c0.2,0,0.5,0.1,0.7,0.2c0.7,0.5,0.9,1.5,0.5,2.3l-1.6,3.4c0.8,0.5,1.6,1.1,2.3,1.8l2.3-2.9
		c0.2-0.3,0.6-0.5,1-0.5c0.4,0,0.7,0.2,0.9,0.5C406.6,35.1,406.6,36,406.1,36.7z"/>
	<circle id="Ellipse_34365" class="st0" cx="391.5" cy="44.8" r="5.5"/>
</g>
</svg>
