<?xml version="1.0" encoding="utf-8"?>
<!-- Generator: Adobe Illustrator 22.0.1, SVG Export Plug-In . SVG Version: 6.00 Build 0)  -->
<svg version="1.1" id="圖層_1" xmlns="http://www.w3.org/2000/svg" xmlns:xlink="http://www.w3.org/1999/xlink" x="0px" y="0px"
	 viewBox="0 0 21.5 14.4" style="enable-background:new 0 0 21.5 14.4;" xml:space="preserve">
<style type="text/css">
	.st0{fill:#FFFFFF;}
</style>
<path class="st0" d="M20.8,14.4h-20c-0.4,0-0.8-0.3-0.8-0.8V0.9c0-0.3,0.2-0.5,0.4-0.7c0.2-0.1,0.5-0.1,0.8,0L6.7,4l3.5-3.7
	c0.3-0.3,0.8-0.3,1.1,0L14.8,4l5.5-3.7c0.2-0.2,0.5-0.2,0.8,0c0.2,0.1,0.4,0.4,0.4,0.7v12.8C21.5,14.1,21.2,14.4,20.8,14.4z
	 M1.5,12.9H20V2.3l-4.9,3.3c-0.3,0.2-0.7,0.2-1-0.1l-3.4-3.6L7.3,5.4c-0.3,0.3-0.7,0.3-1,0.1L1.5,2.3V12.9z"/>
</svg>
