<?xml version="1.0" encoding="utf-8"?>
<!-- Generator: Adobe Illustrator 22.0.1, SVG Export Plug-In . SVG Version: 6.00 Build 0)  -->
<svg version="1.1" id="圖層_1" xmlns="http://www.w3.org/2000/svg" xmlns:xlink="http://www.w3.org/1999/xlink" x="0px" y="0px"
	 viewBox="0 0 20 17.5" style="enable-background:new 0 0 20 17.5;" xml:space="preserve">
<style type="text/css">
	.st0{fill:#FFFFFF;}
</style>
<g id="Group_3273" transform="translate(-531.839 -1732.553)">
	<g id="Group_3272" transform="translate(531.839 1732.553)">
		<path id="Path_11489" class="st0" d="M17.1,2.6C13-0.9,7-0.9,2.9,2.6C-0.5,5.3-1,10.3,1.8,13.7c0.2,0.2,0.3,0.4,0.5,0.6
			c-0.4,0.7-0.9,1.2-1.6,1.6c-0.4,0.1-0.6,0.5-0.5,0.9c0.1,0.4,0.4,0.7,0.8,0.7c0.3,0,0.5,0.1,0.8,0.1c1.2,0,2.5-0.4,3.5-1
			c1.5,0.7,3.1,1,4.7,1c2.6,0,5.1-0.9,7.1-2.6c3.4-2.8,3.9-7.8,1.1-11.2C17.9,3.3,17.5,2.9,17.1,2.6L17.1,2.6z M16.3,14.2
			c-3,2.5-7.2,3-10.7,1.2c-0.2-0.1-0.5-0.1-0.7,0.1c0,0,0,0,0,0c-0.9,0.6-1.9,0.9-3,0.9l0,0c0.7-0.5,1.3-1.2,1.7-2
			c0-0.1,0.1-0.2,0-0.3c0-0.1-0.1-0.2-0.1-0.3c-2.8-2.7-3-7.1-0.3-10c0.2-0.2,0.4-0.4,0.7-0.6c3.6-3,8.9-3,12.5,0
			c3,2.5,3.5,6.9,1,9.9C17,13.6,16.6,13.9,16.3,14.2z"/>
		<ellipse id="Ellipse_34367" class="st0" cx="10" cy="8.7" rx="0.7" ry="0.6"/>
		<ellipse id="Ellipse_34368" class="st0" cx="13.6" cy="8.7" rx="0.7" ry="0.6"/>
		<ellipse id="Ellipse_34369" class="st0" cx="6.4" cy="8.7" rx="0.7" ry="0.6"/>
	</g>
</g>
</svg>
