<svg xmlns="http://www.w3.org/2000/svg" width="20" height="17.458" viewBox="0 0 20 17.458">
  <g id="Group_3273" data-name="Group 3273" transform="translate(-531.839 -1732.553)">
    <g id="Group_3272" data-name="Group 3272" transform="translate(531.839 1732.553)">
      <path id="Path_11489" data-name="Path 11489" d="M548.9,1732.567a11.051,11.051,0,0,0-14.141,0,7.941,7.941,0,0,0-.63,11.737,3.543,3.543,0,0,1-1.6,1.55.792.792,0,0,0-.512.856.885.885,0,0,0,.782.686,5.918,5.918,0,0,0,.791.052,6.587,6.587,0,0,0,3.518-1.019,11.115,11.115,0,0,0,4.719,1.037,10.789,10.789,0,0,0,7.079-2.558,7.959,7.959,0,0,0,0-12.342ZM548.1,1744.2a9.843,9.843,0,0,1-10.749,1.2.631.631,0,0,0-.693.078.187.187,0,0,0-.047.03,5.361,5.361,0,0,1-3.015.938h0a5,5,0,0,0,1.717-1.989.45.45,0,0,0,.03-.321.487.487,0,0,0-.14-.28,7.044,7.044,0,0,1,.372-10.589,9.8,9.8,0,0,1,12.525,0A7.059,7.059,0,0,1,548.1,1744.2Z" transform="translate(-531.839 -1730.009)" fill="#f09478"/>
      <ellipse id="Ellipse_34367" data-name="Ellipse 34367" cx="0.702" cy="0.613" rx="0.702" ry="0.613" transform="translate(9.293 8.116)" fill="#f09478"/>
      <ellipse id="Ellipse_34368" data-name="Ellipse 34368" cx="0.702" cy="0.613" rx="0.702" ry="0.613" transform="translate(12.913 8.116)" fill="#f09478"/>
      <ellipse id="Ellipse_34369" data-name="Ellipse 34369" cx="0.702" cy="0.613" rx="0.702" ry="0.613" transform="translate(5.673 8.116)" fill="#f09478"/>
    </g>
  </g>
</svg>
