<svg xmlns="http://www.w3.org/2000/svg" viewBox="0 0 30 30"><defs><style>.cls-1{fill:#fff;}.cls-2{fill:#ff3e3e;}.cls-3{fill:#61779e;}</style></defs><title>label-3</title><g id="標籤-元件"><circle class="cls-1" cx="15" cy="15" r="15"/><path class="cls-2" d="M11,10.34l1.48-1.76c.79.53,1.57,1.07,2.36,1.59a25.27,25.27,0,0,0,8.76,3.72c1,.2,1.69-.16,1.86-1s-.32-1.38-1.28-1.58a27,27,0,0,1-10-4.82l1.49-1.82L8.45,3.49C9.31,5.8,10.13,8,11,10.34Z"/><path class="cls-3" d="M4.5,17.28v5.48c0,1.27.46,1.72,1.73,1.73a7.48,7.48,0,0,0,.82,0,1.31,1.31,0,0,0,1.38-1.4c0-3.88,0-7.75,0-11.63A1.31,1.31,0,0,0,7,10.06c-.32,0-.65,0-1,0a1.38,1.38,0,0,0-1.55,1.57C4.49,13.51,4.5,15.39,4.5,17.28Z"/><path class="cls-3" d="M9.75,18.63c0,1.42,0,2.84,0,4.26,0,1.11.48,1.58,1.6,1.6.33,0,.66,0,1,0a1.3,1.3,0,0,0,1.34-1.37q0-4.53,0-9.08a1.3,1.3,0,0,0-1.35-1.35,9.37,9.37,0,0,0-1.06,0,1.37,1.37,0,0,0-1.51,1.54C9.74,15.69,9.75,17.16,9.75,18.63Z"/><path class="cls-3" d="M18.94,19.86c0-1,0-2,0-3a1.36,1.36,0,0,0-1.51-1.53,9.35,9.35,0,0,0-1.06,0A1.29,1.29,0,0,0,15,16.67q0,3.22,0,6.46a1.29,1.29,0,0,0,1.34,1.36,10.84,10.84,0,0,0,1.14,0,1.33,1.33,0,0,0,1.43-1.44C19,22,18.94,20.93,18.94,19.86Z"/><path class="cls-3" d="M24.19,21.16c0-.6,0-1.2,0-1.8a1.34,1.34,0,0,0-1.45-1.42,9.37,9.37,0,0,0-1.06,0,1.3,1.3,0,0,0-1.41,1.37c0,1.27,0,2.56,0,3.83a1.3,1.3,0,0,0,1.35,1.35q.61,0,1.23,0a1.31,1.31,0,0,0,1.33-1.37C24.21,22.47,24.19,21.81,24.19,21.16Z"/></g></svg>