<svg xmlns="http://www.w3.org/2000/svg" xmlns:xlink="http://www.w3.org/1999/xlink" viewBox="0 0 30 30"><defs><style>.cls-1{fill:#fff;}.cls-2{fill:url(#新增漸層色票_1);}.cls-3{fill:url(#新增漸層色票_1-2);}.cls-4{fill:url(#未命名漸層_22);}.cls-5{fill:url(#新增漸層色票_1-3);}.cls-6{fill:url(#新增漸層色票_1-4);}</style><radialGradient id="新增漸層色票_1" cx="11.26" cy="21.06" r="5.58" gradientUnits="userSpaceOnUse"><stop offset="0" stop-color="#f84145"/><stop offset="0.66" stop-color="#c01f19"/><stop offset="1" stop-color="#a81106"/></radialGradient><radialGradient id="新增漸層色票_1-2" cx="18.47" cy="21.18" r="5.53" xlink:href="#新增漸層色票_1"/><radialGradient id="未命名漸層_22" cx="15" cy="12.55" r="9.91" gradientUnits="userSpaceOnUse"><stop offset="0" stop-color="#feb047"/><stop offset="0.36" stop-color="#ffef4f"/><stop offset="0.49" stop-color="#ffec4f"/><stop offset="1" stop-color="#feb047"/></radialGradient><radialGradient id="新增漸層色票_1-3" cx="15" cy="12.64" r="6.92" xlink:href="#新增漸層色票_1"/><radialGradient id="新增漸層色票_1-4" cx="15.13" cy="12.48" r="2.62" xlink:href="#新增漸層色票_1"/></defs><title>label-2</title><g id="標籤-元件"><circle class="cls-1" cx="15" cy="15" r="15"/><path class="cls-2" d="M16.19,17.18l-1.31,2.44-.33.62-.18.34-.7,1.32-.29.53L10.91,27c-.12.24-.32.23-.45,0l-.94-1.83a.92.92,0,0,0-.7-.44l-2.21,0c-.26,0-.37-.19-.23-.42l2.56-4.17.18-.3h0L10,18.39l.15-.25,2-3.23,2.8,1.57Z"/><path class="cls-3" d="M23,25l-2.21,0a.89.89,0,0,0-.72.41l-1,1.79c-.13.23-.34.23-.45,0l-2.3-4.7L16,21.93l-.6-1.21-.18-.37-.36-.73-1.21-2.49,1.27-.65L17.8,15l2,3.6.14.25L20.63,20l.18.34h0l2.39,4.25C23.34,24.84,23.23,25,23,25Z"/><path class="cls-4" d="M23.62,15a2.55,2.55,0,0,0,0,.92,5.73,5.73,0,0,1,.06,1.29,1.24,1.24,0,0,1-.15.42c-.42.71-1.67.78-2.26,1.35a3.09,3.09,0,0,0-.6,1,2.31,2.31,0,0,1-.83,1.19c-.71.4-1.82-.16-2.63,0a3.45,3.45,0,0,0-1.15.68,2.07,2.07,0,0,1-1.2.52,2,2,0,0,1-1.15-.55,4,4,0,0,0-1.14-.74c-.81-.23-1.94.3-2.64-.12a2.39,2.39,0,0,1-.77-1.2,3.3,3.3,0,0,0-.57-1.07c-.57-.59-1.82-.7-2.22-1.42A1.42,1.42,0,0,1,6.22,17a5.08,5.08,0,0,1,.1-1.48,2.55,2.55,0,0,0,0-.83c-.16-.66-.91-1.27-1.14-2a1.28,1.28,0,0,1-.07-.39c0-.85,1.07-1.52,1.29-2.3a.85.85,0,0,0,0-.17,5.69,5.69,0,0,0-.06-1.29,1.88,1.88,0,0,1,.15-1.17c.42-.71,1.67-.78,2.27-1.35s.7-1.81,1.42-2.21,1.82.16,2.63,0,1.5-1.22,2.35-1.2,1.52,1.06,2.3,1.29,1.93-.3,2.63.12.77,1.68,1.34,2.27,1.82.7,2.22,1.42a1.77,1.77,0,0,1,.11,1.08,5.38,5.38,0,0,0-.09,1.48s0,0,0,.08c.2.78,1.22,1.5,1.21,2.34a1.36,1.36,0,0,1-.07.35C24.61,13.76,23.81,14.36,23.62,15Z"/><path class="cls-5" d="M21.92,12.67a.08.08,0,0,1,0,0v-.09s0,0,0,0c-.16-.48-.69-.91-.8-1.37s.25-1.34,0-1.84-1.16-.58-1.55-1S19.06,7,18.57,6.7s-1.28.08-1.84-.08-1-.89-1.61-.9-1.09.7-1.63.84-1.35-.26-1.84,0-.59,1.15-1,1.55-1.28.44-1.58.94a.77.77,0,0,0-.11.3H9v.08H9a.17.17,0,0,0,0,.07v.16a2.29,2.29,0,0,0,0,.25V10l0,.26H9c0,.05,0,.1,0,.16v.06a1.12,1.12,0,0,1,0,.41v0s0,0,0,0l0,0a.08.08,0,0,1,0,0l0,0a.35.35,0,0,1-.05.08c-.13.21-.32.42-.48.64l0,.05a2.38,2.38,0,0,0-.18.3s0,0,0,.05v0h0s0,0,0,0v0h0v0a.07.07,0,0,1,0,0v.06c0,.59.71,1.09.84,1.64a.11.11,0,0,1,0,0h0a.13.13,0,0,1,0,.06.11.11,0,0,1,0,.05v.22H9a.38.38,0,0,1,0,.1h0a.38.38,0,0,1,0,.1.28.28,0,0,1,0,.09v0c0,.12,0,.23-.05.34a.13.13,0,0,1,0,.06c0,.05,0,.1,0,.15a1,1,0,0,0,0,.25h0A.79.79,0,0,0,9,16a.38.38,0,0,0,.09.13,1.09,1.09,0,0,0,.26.21l.08.05.13.06.11.06.23.1.17.07a.8.8,0,0,0,.16.08,1.07,1.07,0,0,1,.31.24c.4.41.45,1.28.94,1.58s1.28-.07,1.84.09a1.43,1.43,0,0,1,.47.25l0,0,.07.06.15.11.1.08.24.17a1.07,1.07,0,0,0,.53.19c.59,0,1.09-.71,1.63-.85a1.84,1.84,0,0,1,.7,0l.13,0h.09a1.88,1.88,0,0,0,.82,0l.1,0,0,0,.09-.06c.39-.35.48-1.1.86-1.46a4.42,4.42,0,0,1,1.11-.55l.06,0a1.38,1.38,0,0,0,.28-.19.7.7,0,0,0,.13-.17l0-.05,0-.07a1.12,1.12,0,0,0,.06-.46v-.3s0,0,0-.06v0l0-.15v0a2.11,2.11,0,0,1,0-.25v-.17a.25.25,0,0,1,0-.09v0h0v-.08a.43.43,0,0,0,0-.05,1.37,1.37,0,0,1,.24-.44.86.86,0,0,0,.07-.1l0-.05.12-.14.07-.1a1.44,1.44,0,0,0,.18-.25,1.09,1.09,0,0,0,.08-.15l.05-.1a.86.86,0,0,0,.05-.27Zm-1.44.06A5.48,5.48,0,1,1,15.1,7.16,5.48,5.48,0,0,1,20.48,12.73Z"/><path class="cls-6" d="M17.56,11.73l-1-.16a1.09,1.09,0,0,1-.7-.52l-.46-1c-.12-.24-.31-.25-.43,0l-.48.94a1.05,1.05,0,0,1-.71.5l-1,.14c-.27,0-.33.23-.14.42l.75.74a1,1,0,0,1,.26.83l-.19,1c-.05.26.11.38.35.25l.94-.48a1.06,1.06,0,0,1,.87,0l.93.5c.24.13.4,0,.35-.25l-.17-1a1.06,1.06,0,0,1,.28-.83l.76-.73C17.89,12,17.83,11.77,17.56,11.73Z"/></g></svg>