<svg xmlns="http://www.w3.org/2000/svg" viewBox="0 0 30 30"><defs><style>.cls-1{fill:#fff;}.cls-2{fill:#ff9b0b;}.cls-3{fill:#ffd41f;}.cls-4{fill:#f8e592;}</style></defs><title>grade</title><g id="等級"><circle class="cls-1" cx="15" cy="15" r="15"/><path class="cls-2" d="M15,15H29a13.85,13.85,0,0,0-2.69-8.22L15,15Z"/><path class="cls-2" d="M15,15h0L19.33,1.69a13.93,13.93,0,0,0-8.66,0L15,15Z"/><path class="cls-2" d="M15,15l4.33,13.31a14,14,0,0,0,7-5.09L15,15Z"/><path class="cls-2" d="M15,15,3.69,23.22a14,14,0,0,0,7,5.09L15,15Z"/><path class="cls-2" d="M15,15h0L3.69,6.78A13.85,13.85,0,0,0,1,15Z"/><path class="cls-3" d="M26.31,6.78a14,14,0,0,0-7-5.09L15,15Z"/><path class="cls-3" d="M15,15l11.31,8.22A13.85,13.85,0,0,0,29,15Z"/><path class="cls-3" d="M10.67,28.31a13.93,13.93,0,0,0,8.66,0L15,15Z"/><path class="cls-3" d="M1,15a13.85,13.85,0,0,0,2.69,8.22L15,15Z"/><path class="cls-3" d="M10.67,1.69a14,14,0,0,0-7,5.09L15,15Z"/><circle class="cls-4" cx="15" cy="15" r="11.81"/></g></svg>