<svg xmlns="http://www.w3.org/2000/svg" width="16" height="24" viewBox="0 0 16 24">
  <g id="Group_1579" data-name="Group 1579" transform="translate(-394.764 -505.373)">
    <path id="Path_1457" data-name="Path 1457" d="M399.55,518.636s-3.275,4.015-4.786,5.956a22.155,22.155,0,0,0,3.585,2.848l2.166-3.21.194.106c-.336,1.149-.732,2.449-1.092,3.677a19.76,19.76,0,0,0,11.147.955c-.325-2.652-.633-5.151-.948-7.729C406.547,520.436,399.55,518.636,399.55,518.636Z" fill="#929090"/>
    <path id="Path_1458" data-name="Path 1458" d="M410.022,507.377c.27-.779.228-1.535-.579-1.91-.7-.326-1.471.225-1.791,1.148-.725,2.091-1.5,4.167-2.143,6.284-.3.967-.7,1.508-1.759,1.475-1.224-.038-3.07,1.414-3.493,3.162l9.511,2.412a4.131,4.131,0,0,0-1.59-4.6,1.087,1.087,0,0,1-.431-1.5C408.545,511.7,409.273,509.535,410.022,507.377Z" fill="#929090"/>
  </g>
</svg>
