<svg xmlns="http://www.w3.org/2000/svg" width="17" height="17" viewBox="0 0 17 17">
  <path id="Path_11576" data-name="Path 11576" d="M146.84,114.489a8.5,8.5,0,1,0,8.494,8.607A8.48,8.48,0,0,0,146.84,114.489Zm-3.479,11.072c-.065-.078-.125-.162-.184-.244-.172-.235-.254-.487.02-.69s.483-.051.656.191a3.648,3.648,0,0,0,5.836.193c.064-.079.122-.163.183-.245.159-.215.362-.314.6-.151.255.175.241.41.074.646a4.448,4.448,0,0,1-3.661,1.963A4.509,4.509,0,0,1,143.362,125.561Zm-.034-4.976c0-.218-.017-.437,0-.653a.624.624,0,0,1,.682-.586.6.6,0,0,1,.626.6,12.887,12.887,0,0,1,0,1.307.634.634,0,0,1-.666.618.607.607,0,0,1-.639-.588,4.752,4.752,0,0,1-.006-.7Zm5.711-.634a.624.624,0,0,1,.624-.606.615.615,0,0,1,.689.575,9.552,9.552,0,0,1,.006,1.346.662.662,0,0,1-1.318-.013,5.642,5.642,0,0,1,0-.652A5.375,5.375,0,0,1,149.038,119.951Z" transform="translate(-138.335 -114.489)" fill="#fff"/>
</svg>
