<?xml version="1.0" encoding="utf-8"?>
<!-- Generator: Adobe Illustrator 22.0.1, SVG Export Plug-In . SVG Version: 6.00 Build 0)  -->
<svg version="1.1" id="圖層_1" xmlns="http://www.w3.org/2000/svg" xmlns:xlink="http://www.w3.org/1999/xlink" x="0px" y="0px"
	 viewBox="0 0 16 24" style="enable-background:new 0 0 16 24;" xml:space="preserve">
<style type="text/css">
	.st0{fill:#FFFFFF;}
</style>
<g id="Group_1579" transform="translate(-394.764 -505.373)">
	<path id="Path_1457" class="st0" d="M399.5,518.6c0,0-3.3,4-4.8,6c1.1,1.1,2.3,2,3.6,2.8l2.2-3.2l0.2,0.1c-0.3,1.1-0.7,2.4-1.1,3.7
		c3.5,1.4,7.4,1.7,11.1,1c-0.3-2.7-0.6-5.2-0.9-7.7C406.5,520.4,399.5,518.6,399.5,518.6z"/>
	<path id="Path_1458" class="st0" d="M410,507.4c0.3-0.8,0.2-1.5-0.6-1.9c-0.7-0.3-1.5,0.2-1.8,1.1c-0.7,2.1-1.5,4.2-2.1,6.3
		c-0.3,1-0.7,1.5-1.8,1.5c-1.2,0-3.1,1.4-3.5,3.2l9.5,2.4c0.5-1.7-0.1-3.6-1.6-4.6c-0.5-0.3-0.7-0.9-0.4-1.5c0,0,0,0,0,0
		C408.5,511.7,409.3,509.5,410,507.4z"/>
</g>
</svg>
