<svg id="Group_280" data-name="Group 280" xmlns="http://www.w3.org/2000/svg" width="14.167" height="17" viewBox="0 0 14.167 17">
  <g id="Group_279" data-name="Group 279">
    <path id="Path_628" data-name="Path 628" d="M110.976,551.125H99.643a1.447,1.447,0,0,0-1.417,1.476v2.613a8.688,8.688,0,0,0,4.574,2.569,2.778,2.778,0,0,1,5.018,0,8.687,8.687,0,0,0,4.574-2.569V552.6A1.447,1.447,0,0,0,110.976,551.125Z" transform="translate(-98.226 -551.125)" fill="#f13131"/>
    <path id="Path_629" data-name="Path 629" d="M108.143,572.595a2.834,2.834,0,0,1-5.667,0c0-.074.005-.146.011-.219a10.533,10.533,0,0,1-4.261-1.98v9.924a1.4,1.4,0,0,0,1.417,1.389h11.333a1.4,1.4,0,0,0,1.417-1.389V570.4a10.533,10.533,0,0,1-4.261,1.98C108.137,572.448,108.143,572.521,108.143,572.595Z" transform="translate(-98.226 -564.708)" fill="#f13131"/>
  </g>
  <ellipse id="Ellipse_78" data-name="Ellipse 78" cx="1.771" cy="1.771" rx="1.771" ry="1.771" transform="translate(5.313 5.941)" fill="#f13131"/>
</svg>
