<svg id="圖層_9" data-name="圖層 9" xmlns="http://www.w3.org/2000/svg" xmlns:xlink="http://www.w3.org/1999/xlink" viewBox="0 0 30 30"><defs><style>.cls-1{fill:#fff;}.cls-2{fill:#ff3e3e;}.cls-3{fill:url(#未命名漸層_19);}.cls-4{fill:#fffdfe;}</style><linearGradient id="未命名漸層_19" x1="16.02" y1="26.58" x2="14.35" y2="13.91" gradientUnits="userSpaceOnUse"><stop offset="0" stop-color="#d61669"/><stop offset="0.25" stop-color="#d81a66"/><stop offset="0.48" stop-color="#de255d"/><stop offset="0.71" stop-color="#e9394e"/><stop offset="0.94" stop-color="#f85439"/><stop offset="1" stop-color="#fc5c33"/></linearGradient></defs><title>label-1</title><circle class="cls-1" cx="15" cy="15" r="15"/><path class="cls-2" d="M2,12.61,14.11,3a1.25,1.25,0,0,1,1.55,0l2.17,1.72a1,1,0,0,1,1-1h2.67a1,1,0,0,1,1,1V8.48l5.2,4.12a1.25,1.25,0,1,1-1.55,2l-11.34-9-11.34,9a1.25,1.25,0,0,1-1.55-2Z"/><path class="cls-3" d="M7.25,13.8l7.63-5.86,7.63,5.86,1.8,1.38v5.17s0,4-4,4H9.5s-4,0-4-4V15.18Z"/><path class="cls-4" d="M17.56,16.56l-.72,0a3.43,3.43,0,0,0-.5-1.12h0l.49-.52a.29.29,0,0,0,0-.41l-.9-.86a.29.29,0,0,0-.41,0l-.54.52a2.47,2.47,0,0,0-1.18-.43h0l0-.72a.27.27,0,0,0-.28-.27l-1.23,0c-.16,0-.21.12-.2.28l0,.72a3.49,3.49,0,0,0-1.14.5h0l-.53-.49a.29.29,0,0,0-.41,0l-.86.9a.29.29,0,0,0,0,.41l.52.52a2.89,2.89,0,0,0-.43,1.16H8.57a.22.22,0,0,0-.24.25l0,1.24a.24.24,0,0,0,.25.27l.72,0a3.35,3.35,0,0,0,.5,1.11h0l-.49.52a.29.29,0,0,0,0,.41l.9.86a.29.29,0,0,0,.41,0l.52-.52a3.62,3.62,0,0,0,1.15.43h0l0,.72c0,.16.08.3.24.3l1.25,0a.31.31,0,0,0,.29-.31L14,21.3a2.15,2.15,0,0,0,1-.5h0l.59.49a.33.33,0,0,0,.44,0l.87-.9A.29.29,0,0,0,17,20l-.51-.54a2.48,2.48,0,0,0,.43-1.18h0l.72,0c.16,0,.32-.11.32-.27l0-1.23C17.89,16.62,17.72,16.55,17.56,16.56Zm-5.15,2.65-.05,0-.15-.08-.07,0-.07,0,0,0-.19-.16-.16-.19-.06-.08a1.79,1.79,0,0,1,.24-2.31l.1-.09,0,0,.07-.05.22-.14.08,0a1.8,1.8,0,0,1,1.52,0l.08,0,.11.07.07,0,0,0,.07.05.1.09.06.06.14.16.05.07,0,.07.06.11A1.8,1.8,0,0,1,14.84,18l0,.09,0,.13,0,.08,0,.05-.05.1,0,.08,0,.06,0,.05,0,0-.05.07,0,0-.06.06,0,0-.13.12,0,0-.07.05-.07,0,0,0-.08,0a1.8,1.8,0,0,1-1.48.11Z"/><path class="cls-4" d="M21.57,18.66l-.32.14a1.66,1.66,0,0,0-.43-.41h0l.12-.33a.14.14,0,0,0-.08-.18l-.56-.22a.14.14,0,0,0-.18.08l-.15.33a1.2,1.2,0,0,0-.61,0h0l-.11-.33a.13.13,0,0,0-.18-.07l-.55.24c-.07,0-.07.09,0,.16l.14.32a1.69,1.69,0,0,0-.42.43h0l-.33-.12a.14.14,0,0,0-.18.08l-.22.56a.14.14,0,0,0,.08.18l.33.14a1.4,1.4,0,0,0,0,.6h0l-.32.14a.11.11,0,0,0-.06.16l.24.55a.12.12,0,0,0,.16.07l.32-.14a1.63,1.63,0,0,0,.43.41h0l-.12.32a.14.14,0,0,0,.08.18l.56.22a.14.14,0,0,0,.18-.08l.13-.33a1.75,1.75,0,0,0,.6,0h0l.14.32c0,.07.09.12.16.09l.55-.25a.15.15,0,0,0,.07-.19l-.17-.3a1,1,0,0,0,.37-.41h0l.35.11a.16.16,0,0,0,.2-.09l.23-.57a.14.14,0,0,0-.08-.18l-.33-.15a1.2,1.2,0,0,0,0-.61h0l.32-.12a.15.15,0,0,0,.09-.18l-.24-.55C21.73,18.63,21.64,18.63,21.57,18.66ZM19.75,20.8h-.21l-.11,0-.11-.05,0,0-.11-.09a.87.87,0,0,1-.2-1l0-.06v0l0,0,.07-.1,0,0a.87.87,0,0,1,.68-.27H20l.06,0,0,0,.09,0,0,0,0,0,0,0a.87.87,0,0,1,.29.52v0s0,0,0,.06,0,0,0,0v.33l0,.08v0l0,0,0,0v0l0,0a.87.87,0,0,1-.65.32Z"/></svg>