<svg xmlns="http://www.w3.org/2000/svg" width="18.417" height="17" viewBox="0 0 18.417 17">
  <path id="Path_627" data-name="Path 627" d="M185.978,568H170.439A1.428,1.428,0,0,1,169,566.583V552.417A1.428,1.428,0,0,1,170.439,551h15.539a1.428,1.428,0,0,1,1.439,1.417v14.167A1.428,1.428,0,0,1,185.978,568Zm-5.016-10.125c-.482-.555-.839-.515-1.261.1-1.1,1.6-2.215,3.193-3.373,4.861-.774-.97-1.509-1.9-2.253-2.819-.467-.577-.688-.6-1.2-.089-.744.738-1.474,1.492-2.211,2.239-.094.1-.193.183-.349.33v4.179H186.1v-2.9c-.637-.72-1.181-1.327-1.717-1.945C183.241,560.515,182.105,559.191,180.962,557.875Zm-6.253-.311a1.537,1.537,0,0,0,1.551-1.552,1.519,1.519,0,0,0-1.576-1.564,1.559,1.559,0,1,0,.025,3.116Z" transform="translate(-169 -551)" fill="#929090"/>
</svg>
