<?xml version="1.0" encoding="utf-8"?>
<!-- Generator: Adobe Illustrator 22.0.1, SVG Export Plug-In . SVG Version: 6.00 Build 0)  -->
<svg version="1.1" id="圖層_1" xmlns="http://www.w3.org/2000/svg" xmlns:xlink="http://www.w3.org/1999/xlink" x="0px" y="0px"
	 viewBox="0 0 19.8 25" style="enable-background:new 0 0 19.8 25;" xml:space="preserve">
<style type="text/css">
	.st0{fill:#FFFFFF;}
</style>
<path id="Path_11580" class="st0" d="M19.6,6.7l-6.2-6.5C13.4,0.1,13.2,0,13,0H3.3C1.5,0,0,1.5,0,3.3v18.4C0,23.5,1.5,25,3.3,25
	h13.2c1.8,0,3.3-1.5,3.3-3.3V7.1C19.8,6.9,19.7,6.8,19.6,6.7z M14.9,20.9H4.9c-0.3,0-0.6-0.3-0.6-0.6c0-0.3,0.3-0.6,0.6-0.6h9.9
	c0.3,0,0.6,0.3,0.6,0.6C15.5,20.6,15.2,20.9,14.9,20.9L14.9,20.9z M14.9,16.6H4.9c-0.3,0-0.6-0.3-0.6-0.6c0-0.3,0.3-0.6,0.6-0.6h9.9
	c0.3,0,0.6,0.3,0.6,0.6C15.5,16.3,15.2,16.6,14.9,16.6L14.9,16.6z M14.9,12.3H4.9c-0.3,0-0.6-0.3-0.6-0.6c0-0.3,0.3-0.6,0.6-0.6h9.9
	c0.3,0,0.6,0.3,0.6,0.6C15.5,12,15.2,12.3,14.9,12.3L14.9,12.3L14.9,12.3z M15.1,6.5c-0.6,0-1.2-0.4-1.4-1V2.2l4,4.2H15.1z"/>
</svg>
