<?xml version="1.0" encoding="utf-8"?>
<!-- Generator: Adobe Illustrator 22.0.1, SVG Export Plug-In . SVG Version: 6.00 Build 0)  -->
<svg version="1.1" id="圖層_1" xmlns="http://www.w3.org/2000/svg" xmlns:xlink="http://www.w3.org/1999/xlink" x="0px" y="0px"
	 viewBox="0 0 25 25" style="enable-background:new 0 0 25 25;" xml:space="preserve">
<style type="text/css">
	.st0{fill:#FFFFFF;}
</style>
<g id="Group_3328" transform="translate(-978 -64)">
	<path id="Path_11579" class="st0" d="M990.5,64c-6.9,0-12.5,5.6-12.5,12.5S983.6,89,990.5,89s12.5-5.6,12.5-12.5l0,0
		C1003,69.6,997.4,64,990.5,64z M998.2,75.5l-3.4,2.5l1.3,4c0.2,0.7-0.2,1.5-0.9,1.8c-0.4,0.1-0.9,0.1-1.2-0.2l-3.4-2.5l-3.4,2.5
		c-0.6,0.5-1.5,0.3-1.9-0.3c-0.3-0.4-0.3-0.8-0.2-1.2l1.3-4l-3.4-2.5c-0.6-0.5-0.8-1.3-0.3-1.9c0.3-0.4,0.7-0.6,1.1-0.6h4.3l1.3-4
		c0.2-0.7,1-1.1,1.8-0.9c0.4,0.1,0.7,0.5,0.9,0.9l1.3,4h4.3c0.8,0,1.4,0.6,1.4,1.4C998.8,74.9,998.6,75.3,998.2,75.5L998.2,75.5z"/>
</g>
</svg>
