<svg xmlns="http://www.w3.org/2000/svg" width="19.807" height="25" viewBox="0 0 19.807 25">
  <path id="Path_11580" data-name="Path 11580" d="M47.951,114.123l-6.16-6.462a.606.606,0,0,0-.434-.193H31.6a3.3,3.3,0,0,0-3.285,3.279v18.442a3.3,3.3,0,0,0,3.285,3.279H44.841a3.3,3.3,0,0,0,3.285-3.279V114.545A.649.649,0,0,0,47.951,114.123ZM43.2,128.382H33.253a.6.6,0,1,1,0-1.207h9.939a.6.6,0,1,1,.006,1.207Zm0-4.317H33.253a.6.6,0,1,1,0-1.208h9.939a.6.6,0,1,1,.006,1.208Zm0-4.318H33.253a.6.6,0,1,1,0-1.208h9.939a.6.6,0,1,1,.006,1.208Zm.212-5.818a1.437,1.437,0,0,1-1.356-.957v-3.28l4.037,4.237Z" transform="translate(-28.319 -107.468)" fill="#495060"/>
</svg>
