<svg xmlns="http://www.w3.org/2000/svg" width="25" height="25" viewBox="0 0 25 25">
  <path id="Path_11579" data-name="Path 11579" d="M990.5,64A12.5,12.5,0,1,0,1003,76.5,12.5,12.5,0,0,0,990.5,64Zm7.707,11.54-3.442,2.5,1.315,4.047a1.389,1.389,0,0,1-2.137,1.553l-3.442-2.5-3.444,2.5a1.389,1.389,0,0,1-2.138-1.553l1.315-4.047-3.442-2.5a1.389,1.389,0,0,1,.818-2.512h4.255l1.316-4.047a1.389,1.389,0,0,1,2.639,0l1.32,4.047h4.251a1.389,1.389,0,0,1,.817,2.512Z" transform="translate(-978 -64)" fill="#495060"/>
</svg>
