<svg id="Capa_1" data-name="Capa 1" xmlns="http://www.w3.org/2000/svg" viewBox="0 0 907.09 907.09"><defs><style>.cls-1{fill:#707070;}</style></defs><title>icon-black</title><path class="cls-1" d="M769.23,11.59a31.57,31.57,0,0,0-31.57,31.57V158.47C575.13,1.13,315.82,5.32,158.48,167.85A409.6,409.6,0,0,0,43.16,453.54a31.57,31.57,0,1,0,63.14,0c0-191.78,155.54-347.22,347.32-347.18A347.25,347.25,0,0,1,709.69,219.15L569.84,265.77a31.6,31.6,0,0,0,20,60L779.2,262.62a31.57,31.57,0,0,0,21.59-30.05V43.15A31.57,31.57,0,0,0,769.23,11.59Z"/><path class="cls-1" d="M832.36,422a31.57,31.57,0,0,0-31.57,31.57c0,191.78-155.54,347.22-347.32,347.18A347.25,347.25,0,0,1,197.4,687.94l139.85-46.63a31.6,31.6,0,1,0-20-60L127.88,644.47a31.57,31.57,0,0,0-21.59,30.05V863.93a31.57,31.57,0,0,0,63.14,0V748.61C332,906,591.26,901.76,748.61,739.24A409.6,409.6,0,0,0,863.93,453.54,31.56,31.56,0,0,0,832.36,422Z"/></svg>