<svg id="圖層_1" data-name="圖層 1" xmlns="http://www.w3.org/2000/svg" viewBox="0 0 16 10"><defs><style>.cls-1{fill:#707070;}</style></defs><title>icon-show</title><path class="cls-1" d="M13.46,4.14l-.83,1a5.48,5.48,0,0,1,.82,1.43.62.62,0,0,1-.25.78.48.48,0,0,1-.67-.3A4.9,4.9,0,0,0,8,4.05a4.9,4.9,0,0,0-4.58,3,.48.48,0,0,1-.67.3.62.62,0,0,1-.25-.78A5.93,5.93,0,0,1,3.35,5l-.74-.89a.65.65,0,0,1,0-.83.47.47,0,0,1,.72,0l.79.94A6.25,6.25,0,0,1,5,3.65L4.49,2.52a.63.63,0,0,1,.2-.8.42.42,0,0,1,.24-.07.5.5,0,0,1,.45.3L6,3.22a6.34,6.34,0,0,1,1.45-.31V1.59A.55.55,0,0,1,8,1a.55.55,0,0,1,.51.59V2.91a6.12,6.12,0,0,1,1.59.36L10.69,2a.49.49,0,0,1,.44-.3.45.45,0,0,1,.25.07.63.63,0,0,1,.2.8L11,3.73a5.29,5.29,0,0,1,.87.62l.85-1a.49.49,0,0,1,.37-.18.46.46,0,0,1,.35.16A.65.65,0,0,1,13.46,4.14Z"/><circle class="cls-1" cx="8" cy="7" r="2"/></svg>