<svg xmlns="http://www.w3.org/2000/svg" width="16" height="18" viewBox="0 0 16 18">
    <defs>
        <style>
            .cls-1{fill:#fff}
        </style>
    </defs>
    <g id="_003-support" data-name="003-support" transform="translate(-25.6)">
        <g id="Group_953" data-name="Group 953" transform="translate(25.6 13.175)">
            <g id="Group_952" data-name="Group 952">
                <path id="Path_1203" d="M38.712 375.492a93.207 93.207 0 0 1-1.619-.729l-.028-.013-.022.021a5.717 5.717 0 0 1-.673.565l-.062.044.069.033c.766.361 1.43.656 1.991.9 2.083.92 2.346 1.1 2.346 1.6a.809.809 0 0 1-.751.761H27.235a.809.809 0 0 1-.751-.761c0-.5.263-.681 2.346-1.6.561-.249 1.225-.544 1.991-.9l.069-.033-.062-.044a5.769 5.769 0 0 1-.673-.565l-.022-.021-.028.013c-.61.283-1.146.52-1.619.729-2.1.929-2.887 1.277-2.887 2.428a1.71 1.71 0 0 0 1.635 1.655h12.73a1.71 1.71 0 0 0 1.636-1.655c0-1.152-.786-1.5-2.888-2.428z" class="cls-1" data-name="Path 1203" transform="translate(-25.6 -374.75)"/>
            </g>
        </g>
        <g id="Group_955" data-name="Group 955" transform="translate(26.489)">
            <g id="Group_954" data-name="Group 954">
                <path id="Path_1204" d="M64.533 5.4h-.889a5.334 5.334 0 1 0-10.667 0h-.889a.894.894 0 0 0-.889.9V9a.894.894 0 0 0 .889.9h.889a.874.874 0 0 0 .655-.3 1.41 1.41 0 0 0 .083.115c.615 2.466 2.442 4.26 4.6 4.26 2.205 0 4.064-1.883 4.634-4.442a.869.869 0 0 0 .7.37h.889a.894.894 0 0 0 .889-.9V6.3a.894.894 0 0 0-.894-.9zM52.978 9h-.889V6.3h.889zm5.333 4.078a3.886 3.886 0 0 1-3.381-2.551 9.3 9.3 0 0 0 3.381.723.45.45 0 0 0 0-.9 7.246 7.246 0 0 1-3.788-1.084 6.731 6.731 0 0 1-.145-1.38c0-2.863 1.765-5.191 3.934-5.191s3.934 2.329 3.934 5.191-1.766 5.192-3.935 5.192zm4.434-7.57C62.01 3.33 60.3 1.8 58.311 1.8s-3.7 1.53-4.434 3.707c0-.037-.011-.071-.011-.107a4.445 4.445 0 1 1 8.889 0c.001.037-.009.071-.01.107zM64.533 9h-.889V6.3h.889z" class="cls-1" data-name="Path 1204" transform="translate(-51.2)"/>
            </g>
        </g>
    </g>
</svg>
