<svg id="圖層_1" data-name="圖層 1" xmlns="http://www.w3.org/2000/svg" viewBox="0 0 20 20"><defs><style>.cls-1{fill:#b3b3b3;}.cls-2{fill:#fff;}</style></defs><title>icon-vercode</title><circle class="cls-1" cx="10" cy="10" r="10"/><g id="surface1"><path class="cls-2" d="M15,7.26h0c0-.12,0-.24,0-.38a1.25,1.25,0,0,0-1.17-1.24,4.79,4.79,0,0,1-3.29-1.42h0a.74.74,0,0,0-1,0h0A4.79,4.79,0,0,1,6.19,5.63,1.25,1.25,0,0,0,5,6.87C5,7,5,7.13,5,7.25v0A13.28,13.28,0,0,0,5.53,12a6,6,0,0,0,1.41,2.25A7.44,7.44,0,0,0,9.72,16l.11,0L10,16l.17,0,.11,0a7.32,7.32,0,0,0,2.77-1.68A5.88,5.88,0,0,0,14.47,12,13.28,13.28,0,0,0,15,7.26Zm-1.16,4.51a5.75,5.75,0,0,1-3.78,3.52h0a.06.06,0,0,1-.06,0h0a5.75,5.75,0,0,1-3.78-3.52A12.39,12.39,0,0,1,5.7,7.28h0c0-.12,0-.25,0-.39a.57.57,0,0,1,.52-.55,5.82,5.82,0,0,0,2.06-.46A5.43,5.43,0,0,0,10,4.72a.06.06,0,0,1,.08,0,5.36,5.36,0,0,0,1.68,1.15,5.71,5.71,0,0,0,2,.46.56.56,0,0,1,.52.55c0,.15,0,.27,0,.39A12.47,12.47,0,0,1,13.83,11.77Z"/><path class="cls-2" d="M10,7a3,3,0,1,0,2.93,3A3,3,0,0,0,10,7Zm0,5.28A2.29,2.29,0,1,1,12.24,10,2.27,2.27,0,0,1,10,12.29Z"/><path class="cls-2" d="M10.84,9.07,9.48,10.46l-.37-.38a.34.34,0,0,0-.48,0,.35.35,0,0,0,0,.5l.61.63a.33.33,0,0,0,.24.1.35.35,0,0,0,.25-.1l1.6-1.64a.37.37,0,0,0,0-.5A.34.34,0,0,0,10.84,9.07Z"/></g></svg>