<svg id="圖層_1" data-name="圖層 1" xmlns="http://www.w3.org/2000/svg" viewBox="0 0 20 20"><defs><style>.cls-1{fill:#b3b3b3;}.cls-2{fill:#fff;}</style></defs><title>icon-id</title><circle class="cls-1" cx="10" cy="10" r="10"/><path class="cls-2" d="M10,10.28a3.14,3.14,0,1,1,3.1-3.14A3.12,3.12,0,0,1,10,10.28Zm0-5.55a2.41,2.41,0,1,0,2.38,2.41A2.4,2.4,0,0,0,10,4.73Z"/><path class="cls-2" d="M14.3,16V14.82a3.54,3.54,0,0,0-3.62-3.43H9.32A3.54,3.54,0,0,0,5.7,14.82V16H5V14.82a4.22,4.22,0,0,1,4.32-4.1h1.36A4.22,4.22,0,0,1,15,14.82V16Z"/></svg>