<svg id="圖層_1" data-name="圖層 1" xmlns="http://www.w3.org/2000/svg" viewBox="0 0 20 20"><defs><style>.cls-1{fill:#b3b3b3;}.cls-2{fill:#fff;}</style></defs><title>icon-pw</title><circle class="cls-1" cx="10" cy="10" r="10"/><path class="cls-2" d="M10,10.48a1.3,1.3,0,0,0-1.37,1.2,1.13,1.13,0,0,0,.43.86v1.08a.88.88,0,0,0,.94.81.88.88,0,0,0,.94-.81V12.54a1.13,1.13,0,0,0,.43-.86A1.3,1.3,0,0,0,10,10.48Zm.48,1.64a.54.54,0,0,0-.2.41v1.09a.28.28,0,0,1-.56,0V12.53a.54.54,0,0,0-.2-.41.53.53,0,0,1-.22-.44.71.71,0,0,1,1.4,0A.53.53,0,0,1,10.48,12.12Z"/><path class="cls-2" d="M14,8.92H13V6.63A2.84,2.84,0,0,0,10,4,2.84,2.84,0,0,0,7,6.63V8.92H6a.94.94,0,0,0-1,.86v5.35A.94.94,0,0,0,6,16h8a.94.94,0,0,0,1-.87V9.78A.94.94,0,0,0,14,8.92ZM7.65,6.63a2.22,2.22,0,0,1,2.35-2,2.22,2.22,0,0,1,2.35,2.05V8.92H7.65Zm6.69,8.5h0a.31.31,0,0,1-.33.29H6a.31.31,0,0,1-.33-.29V9.78A.31.31,0,0,1,6,9.5h8a.31.31,0,0,1,.33.28Z"/></svg>