<svg xmlns="http://www.w3.org/2000/svg" width="15" height="18" viewBox="0 0 15 18">
  <path id="Path_599" data-name="Path 599" d="M435.581,1045.255h-.009c0-.64,0-1.353,0-1.488a4.755,4.755,0,0,0-1.763-3.864,4.6,4.6,0,0,0-2.418-1.035,3.255,3.255,0,0,0-.453-.027h-.486a2.526,2.526,0,0,0-.414.027,4.766,4.766,0,0,0-4,3.336,4.561,4.561,0,0,0-.224,1.587l.008,1.464h-.038a2.444,2.444,0,0,0-2.608,2.235v7.114a2.444,2.444,0,0,0,2.608,2.237h9.783a2.444,2.444,0,0,0,2.609-2.237v-7.114A2.442,2.442,0,0,0,435.581,1045.255Zm-4.045,6.33v2.113a.812.812,0,0,1-1.623,0v-2.113a1.753,1.753,0,0,1-1.044-1.572,1.778,1.778,0,0,1,1.811-1.758,1.811,1.811,0,0,1,1.846,1.758A1.841,1.841,0,0,1,431.536,1051.585Zm.612-6.33h-3.8c0-.547-.01-1.094-.006-1.645a2.313,2.313,0,0,1,1.652-2.228,2.375,2.375,0,0,1,2.632.89,2.118,2.118,0,0,1,.429,1.266c0,.18,0,1,0,1.717h-.9Z" transform="translate(-423.182 -1038.841)" fill="#e3e7ef" opacity="0.8"/>
</svg>
