<svg xmlns="http://www.w3.org/2000/svg" width="24.375" height="26" viewBox="0 0 24.375 26">
  <g id="Group_875" data-name="Group 875" transform="translate(-1785 -878)">
    <path id="icon-qq" d="M35.644,26.119a15.3,15.3,0,0,0-1.7-3.241.333.333,0,0,1-.083-.369,2.9,2.9,0,0,0-.2-2.5,2.72,2.72,0,0,1-.443-1.143,9.21,9.21,0,0,0-.342-1.84,7.4,7.4,0,0,0-3.515-4.863,8.947,8.947,0,0,0-3.416-1.083,11.105,11.105,0,0,0-3.694.184,7.5,7.5,0,0,0-4.663,3.417,8.47,8.47,0,0,0-1.457,3.763c-.031.268.063.564-.1.812a1.73,1.73,0,0,0-.268.7,3.327,3.327,0,0,1-.329,1.072,2.008,2.008,0,0,0-.193,1.352.352.352,0,0,1-.134.408,8.683,8.683,0,0,0-1.977,2.2,8.059,8.059,0,0,0-1.309,3.99,4.365,4.365,0,0,0,.236,1.711c.095.269.222.4.525.3a1.675,1.675,0,0,0,.667-.375A3.749,3.749,0,0,0,14.2,29.3c.025-.06.019-.152.111-.147s.091.08.106.15a6.374,6.374,0,0,0,.713,1.753,6.049,6.049,0,0,0,1.265,1.513c.169.156.408.228.5.492a2.838,2.838,0,0,0-.975.161,1.461,1.461,0,0,0-1.1,1.09,1.542,1.542,0,0,0,.37,1.633,2.8,2.8,0,0,0,.685.425,7.917,7.917,0,0,0,2.733.578,9.86,9.86,0,0,0,3.439-.221,6.411,6.411,0,0,0,1.829-.886c.053-.037.089-.121.166-.1.451.137.927,0,1.384.181a10.733,10.733,0,0,0,2.275.658,11.672,11.672,0,0,0,3.5.132,5.471,5.471,0,0,0,2.269-.728,1.246,1.246,0,0,0,.082-2.187,8.052,8.052,0,0,0-1.313-.8.758.758,0,0,1-.344-.235,8.6,8.6,0,0,0,1.86-3.266,8.439,8.439,0,0,0,.868,1.43c.365.455.683.445,1.042-.011a1.743,1.743,0,0,0,.312-.609A6.484,6.484,0,0,0,35.644,26.119Z" transform="translate(1773.188 867)" fill="#FFF"/>
  </g>
</svg>
