<?xml version="1.0" encoding="utf-8"?>
<!-- Generator: Adobe Illustrator 22.0.1, SVG Export Plug-In . SVG Version: 6.00 Build 0)  -->
<svg version="1.1" id="圖層_1" xmlns="http://www.w3.org/2000/svg" xmlns:xlink="http://www.w3.org/1999/xlink" x="0px" y="0px"
	 viewBox="0 0 27 23" style="enable-background:new 0 0 27 23;" xml:space="preserve">
<style type="text/css">
	.st0{fill:#FFFFFF;}
</style>
<g id="icon-chat" transform="translate(-1.426 -2)">
	<path id="Path_1271" class="st0" d="M11.9,18.9C8.3,15.3,8,9.6,11,5.6h0c-2.5,0-5,1-6.7,2.8C0.7,12,0.5,17.6,3.6,21.5
		c-0.3,0.7-0.8,1.3-1.5,1.7c-0.5,0.2-0.6,0.8-0.4,1.2c0.1,0.3,0.4,0.4,0.7,0.5C2.6,25,2.8,25,3.1,25c1.2,0,2.4-0.4,3.4-1.1
		c1.4,0.8,2.9,1.2,4.5,1.2c2.5,0,5-1,6.7-2.8c0.1-0.1,0.2-0.2,0.3-0.3C15.7,21.6,13.5,20.6,11.9,18.9z"/>
	<path id="Path_1270" class="st0" d="M27.8,19.3c-0.7-0.4-1.2-1-1.5-1.7c3.1-3.8,2.8-9.3-0.6-12.8c-3.6-3.7-9.4-3.7-13-0.2
		c-0.1,0.1-0.1,0.1-0.2,0.2c-3.7,3.7-3.7,9.7,0,13.5c1.7,1.8,4.1,2.8,6.6,2.8c1.5,0,3.1-0.4,4.4-1.1c0.9,0.7,2.1,1.1,3.3,1.1
		c0.2,0,0.5,0,0.7-0.1c0.5-0.1,0.8-0.6,0.7-1C28.2,19.7,28,19.4,27.8,19.3L27.8,19.3z"/>
</g>
</svg>
