<svg xmlns="http://www.w3.org/2000/svg" width="27" height="25.059" viewBox="0 0 27 25.059">
  <path id="icon-contact" d="M36.141,29.159c-.665-.332-3.931-1.938-4.539-2.16s-1.052-.332-1.495.332-1.716,2.161-2.1,2.6-.775.5-1.439.166a18.121,18.121,0,0,1-5.342-3.3,20.008,20.008,0,0,1-3.7-4.6c-.387-.665-.041-1.024.292-1.356.3-.3.664-.775,1-1.163a4.562,4.562,0,0,0,.665-1.108,1.223,1.223,0,0,0-.056-1.163c-.166-.333-1.5-3.6-2.048-4.931-.539-1.3-1.087-1.12-1.495-1.14-.387-.02-.83-.024-1.273-.024a2.441,2.441,0,0,0-1.771.831,7.449,7.449,0,0,0-2.325,5.541c0,3.268,2.38,6.426,2.712,6.869s4.684,7.151,11.348,10.028a38.321,38.321,0,0,0,3.787,1.4,9.114,9.114,0,0,0,4.184.263c1.277-.191,3.931-1.607,4.484-3.158a5.549,5.549,0,0,0,.388-3.158C37.248,29.658,36.805,29.492,36.141,29.159Z" transform="translate(-10.511 -11.32)" fill="#FFF"/>
</svg>
