<svg xmlns="http://www.w3.org/2000/svg" width="27" height="23" viewBox="0 0 27 23">
  <g id="icon-chat" transform="translate(-1.426 -2)">
    <path id="Path_1271" data-name="Path 1271" d="M11.869,23.973A10.266,10.266,0,0,1,11,10.664h-.048a9.373,9.373,0,0,0-6.738,2.847,9.861,9.861,0,0,0-.6,13.063A3.7,3.7,0,0,1,2.086,28.3a.916.916,0,0,0,.258,1.717,4.829,4.829,0,0,0,.754.057A5.614,5.614,0,0,0,6.45,28.94a9.333,9.333,0,0,0,4.5,1.154,9.438,9.438,0,0,0,6.746-2.847q.167-.17.324-.347A9.8,9.8,0,0,1,11.869,23.973Z" transform="translate(0 -5.095)" fill="#495060"/>
    <path id="Path_1270" data-name="Path 1270" d="M40.069,19.3a3.625,3.625,0,0,1-1.5-1.693,9.677,9.677,0,0,0-.589-12.819,9.222,9.222,0,0,0-13.224,0,9.653,9.653,0,0,0,0,13.479,9.263,9.263,0,0,0,6.62,2.794,9.16,9.16,0,0,0,4.413-1.132,5.51,5.51,0,0,0,3.29,1.112,4.721,4.721,0,0,0,.74-.056.9.9,0,0,0,.253-1.685Z" transform="translate(-12.29)" fill="#495060"/>
  </g>
</svg>
