<svg xmlns="http://www.w3.org/2000/svg" width="20.332" height="35" viewBox="0 0 20.332 35">
  <g id="icon-downapp" transform="translate(-13.834 -6.5)">
    <path id="Path_1142" data-name="Path 1142" d="M31.8,6.5H16.2a2.371,2.371,0,0,0-2.364,2.364V39.135A2.371,2.371,0,0,0,16.2,41.5H31.8a2.37,2.37,0,0,0,2.364-2.364V8.864A2.371,2.371,0,0,0,31.8,6.5ZM21.5,8.2H26.5a.287.287,0,0,1,0,.573H21.5a.287.287,0,0,1,0-.573ZM24,40.318a1.183,1.183,0,1,1,1.182-1.183A1.182,1.182,0,0,1,24,40.318Zm8.521-3.193H15.479V10.249H32.521Z" fill="#FFF"/>
  </g>
</svg>
