<svg xmlns="http://www.w3.org/2000/svg" width="15" height="18" viewBox="0 0 15 18">
  <g id="Group_1582" data-name="Group 1582" transform="translate(-2892.449 -521.188)">
    <path id="Path_1277" data-name="Path 1277" d="M2907.432,526.072v-.014c-.008-.173-.013-.356-.016-.559a1.89,1.89,0,0,0-1.758-1.869,7.17,7.17,0,0,1-4.931-2.124l-.011-.011a1.11,1.11,0,0,0-1.532,0l-.011.011a7.169,7.169,0,0,1-4.931,2.124,1.89,1.89,0,0,0-1.758,1.869c0,.2-.008.385-.016.559v.033a19.913,19.913,0,0,0,.772,7.121,9.084,9.084,0,0,0,2.128,3.387,11.088,11.088,0,0,0,4.164,2.517,1.261,1.261,0,0,0,.171.048,1.244,1.244,0,0,0,.667-.048,11.091,11.091,0,0,0,4.16-2.518,9.1,9.1,0,0,0,2.128-3.388A19.941,19.941,0,0,0,2907.432,526.072Zm-7.482-.37a4.487,4.487,0,1,1-4.39,4.486A4.443,4.443,0,0,1,2899.95,525.7Z" transform="translate(0)" fill="#d7d9e3"/>
    <path id="Path_1278" data-name="Path 1278" d="M2980.744,639.786a3.43,3.43,0,1,0-3.356-3.43A3.4,3.4,0,0,0,2980.744,639.786Zm-2.062-3.3a.509.509,0,0,1,.731,0l.553.566,2.039-2.084a.509.509,0,0,1,.731,0,.537.537,0,0,1,0,.747l-2.4,2.457a.509.509,0,0,1-.73,0l-.919-.939A.537.537,0,0,1,2978.683,636.482Z" transform="translate(-80.795 -106.169)" fill="#d7d9e3"/>
  </g>
</svg>
