<?xml version="1.0" encoding="utf-8"?>
<!-- Generator: Adobe Illustrator 22.0.1, SVG Export Plug-In . SVG Version: 6.00 Build 0)  -->
<svg version="1.1" id="圖層_1" xmlns="http://www.w3.org/2000/svg" xmlns:xlink="http://www.w3.org/1999/xlink" x="0px" y="0px"
	 viewBox="0 0 30 28" style="enable-background:new 0 0 30 28;" xml:space="preserve">
<style type="text/css">
	.st0{fill:#FFFFFF;}
</style>
<path id="icon-account" class="st0" d="M19.7,17.3c4.4-2.6,5.9-8.3,3.3-12.8s-8.3-5.9-12.8-3.3S4.3,9.5,7,14
	c0.8,1.4,1.9,2.5,3.3,3.3C4.9,18.2,0.7,22.5,0,28h2.1c0.6-5.1,5.2-9,10.8-9H17c5.6,0,10.2,4,10.8,9H30
	C29.3,22.5,25.1,18.2,19.7,17.3z M7.8,9.3c0-4,3.2-7.2,7.1-7.2s7.2,3.2,7.2,7.1S19,16.4,15,16.4c0,0,0,0,0,0
	C11.1,16.4,7.9,13.2,7.8,9.3L7.8,9.3z"/>
</svg>
