<?xml version="1.0" encoding="utf-8"?>
<!-- Generator: Adobe Illustrator 22.0.1, SVG Export Plug-In . SVG Version: 6.00 Build 0)  -->
<svg version="1.1" id="圖層_1" xmlns="http://www.w3.org/2000/svg" xmlns:xlink="http://www.w3.org/1999/xlink" x="0px" y="0px"
	 viewBox="0 0 30 30" style="enable-background:new 0 0 30 30;" xml:space="preserve">
<style type="text/css">
	.st0{fill:#808695;}
</style>
<g id="icon-financial" transform="translate(-1.387 -1.134)">
	<path id="Path_1283" class="st0" d="M17.1,14.7V9.8c1.7,0.1,2.3,0.9,2.8,0.9c0.7,0,1-0.9,1-1.4c0-1.2-2.3-1.7-3.9-1.7V7
		c0-0.3-0.4-0.6-0.7-0.6c-0.3,0-0.6,0.2-0.7,0.6v0.7c-2.2,0.2-4.5,1.4-4.5,4.5c0,3.1,2.4,3.9,4.5,4.7v5.6c-2.4-0.2-3.1-1.9-3.8-1.9
		c-0.6,0-1.1,0.8-1.1,1.4c0,1.2,2,2.8,4.9,2.8v0.7c0,0.3,0.3,0.6,0.7,0.6c0.4,0,0.7-0.3,0.7-0.6v-0.8c2.5-0.2,4.5-2.4,4.3-4.9
		c0,0,0,0,0,0C21.4,16.5,19.1,15.5,17.1,14.7z M15.8,14.3c-1.3-0.5-2.3-1-2.3-2.3c0-1.2,0.9-1.8,2.3-2V14.3z M16.9,22.4v-5.1
		c1.2,0.5,2.1,1.2,2.1,2.7C19.1,21.3,18.2,22.3,16.9,22.4z"/>
	<path id="Path_1284" class="st0" d="M31.4,23.4c-0.1-0.4-0.6-0.7-1-0.6c0,0,0,0,0,0l-1,0.3c1.7-3.3,2.1-7.1,1.2-10.7
		c-1-3.8-3.4-7.1-6.8-9.2c-3.4-2-7.4-2.6-11.2-1.6c-3.8,1-7.1,3.5-9.1,6.9c-2,3.4-2.6,7.5-1.6,11.4c1.6,6.2,6.8,10.7,13.2,11.2h0.1
		c0.5,0,0.8-0.4,0.8-0.9c0-0.4-0.3-0.7-0.7-0.8C9.5,29,4.8,25,3.4,19.5C2.5,16.1,3,12.4,4.8,9.4c1.8-3.1,4.7-5.3,8.1-6.2
		c3.4-0.9,7-0.4,10,1.4c3,1.8,5.2,4.7,6.1,8.2c0.8,3.2,0.4,6.6-1.1,9.5L27.9,21c0-0.4-0.4-0.8-0.8-0.8c-0.4,0-0.8,0.4-0.8,0.8
		c0,0,0,0,0,0l0.2,3.4c0,0.2,0.1,0.5,0.3,0.6c0.2,0.1,0.5,0.2,0.7,0.1l3.3-0.9C31.2,24.2,31.5,23.8,31.4,23.4z"/>
</g>
</svg>
