<?xml version="1.0" encoding="utf-8"?>
<!-- Generator: Adobe Illustrator 22.0.1, SVG Export Plug-In . SVG Version: 6.00 Build 0)  -->
<svg version="1.1" id="圖層_1" xmlns="http://www.w3.org/2000/svg" xmlns:xlink="http://www.w3.org/1999/xlink" x="0px" y="0px"
	 viewBox="0 0 22.7 30" style="enable-background:new 0 0 22.7 30;" xml:space="preserve">
<style type="text/css">
	.st0{fill:#FFFFFF;}
</style>
<g id="icon-record" transform="translate(143.778 -1.396)">
	<path id="Path_1279" class="st0" d="M-128.3,1.6c-0.1-0.1-0.3-0.2-0.5-0.2H-140c-2.1,0.1-3.8,1.8-3.8,3.9v22.1
		c0,2.1,1.6,3.9,3.8,3.9h15.2c2.1-0.1,3.8-1.8,3.8-3.9V9.9c0-0.2-0.1-0.4-0.2-0.5L-128.3,1.6z M-128.1,4l4.7,5.2h-3.1
		c-0.9,0-1.7-0.8-1.7-1.7c0,0,0,0,0,0V4z M-124.8,29.9H-140c-1.3,0-2.4-1.1-2.4-2.5V5.3c0-1.3,1-2.4,2.4-2.5h10.5v4.6
		c0,1.7,1.3,3.1,3,3.2c0,0,0,0,0,0h4v16.9C-122.4,28.8-123.5,29.9-124.8,29.9L-124.8,29.9z"/>
	<path id="Path_1280" class="st0" d="M-125,25.4h-14.8c-0.5,0-0.9,0.2-0.9,0.4s0.4,0.4,0.9,0.4h14.8c0.5,0,0.9-0.2,0.9-0.4
		S-124.5,25.4-125,25.4z"/>
	<path id="Path_1281" class="st0" d="M-125,20.1h-14.8c-0.5,0-0.9,0.2-0.9,0.4s0.4,0.4,0.9,0.4h14.8c0.5,0,0.9-0.2,0.9-0.4
		S-124.5,20.1-125,20.1z"/>
	<path id="Path_1282" class="st0" d="M-125,14.8h-14.8c-0.5,0-0.9,0.2-0.9,0.4s0.4,0.4,0.9,0.4h14.8c0.5,0,0.9-0.2,0.9-0.4
		S-124.5,14.8-125,14.8z"/>
</g>
</svg>
