<svg xmlns="http://www.w3.org/2000/svg" width="22.727" height="30" viewBox="0 0 22.727 30">
  <g id="icon-record" transform="translate(143.778 -1.396)">
    <path id="Path_1279" data-name="Path 1279" d="M-128.319,1.629a.68.68,0,0,0-.5-.233h-11.191a3.876,3.876,0,0,0-3.769,3.935v22.13a3.876,3.876,0,0,0,3.769,3.935h15.189a3.875,3.875,0,0,0,3.769-3.935V9.888a.794.794,0,0,0-.2-.506Zm.2,2.325,4.733,5.2h-3.077a1.689,1.689,0,0,1-1.656-1.724Zm3.3,25.992h-15.189a2.456,2.456,0,0,1-2.383-2.485V5.331a2.456,2.456,0,0,1,2.383-2.485h10.5V7.425a3.1,3.1,0,0,0,3.042,3.174h4.025V27.461A2.451,2.451,0,0,1-124.82,29.946Z" transform="translate(0 0)" fill="#808695"/>
    <path id="Path_1280" data-name="Path 1280" d="M-123.362,22.755h-14.805c-.494,0-.9.2-.9.446s.405.446.9.446h14.813c.5,0,.9-.2.9-.446S-122.858,22.755-123.362,22.755Z" transform="translate(-1.652 2.651)" fill="#808695"/>
    <path id="Path_1281" data-name="Path 1281" d="M-123.362,18.056h-14.805c-.494,0-.9.2-.9.446s.405.446.9.446h14.813c.5,0,.9-.2.9-.446S-122.858,18.056-123.362,18.056Z" transform="translate(-1.652 2.068)" fill="#808695"/>
    <path id="Path_1282" data-name="Path 1282" d="M-123.362,13.357h-14.805c-.494,0-.9.2-.9.446s.405.446.9.446h14.813c.5,0,.9-.2.9-.446S-122.858,13.357-123.362,13.357Z" transform="translate(-1.652 1.484)" fill="#808695"/>
  </g>
</svg>
