<?xml version="1.0" encoding="utf-8"?>
<!-- Generator: Adobe Illustrator 22.0.1, SVG Export Plug-In . SVG Version: 6.00 Build 0)  -->
<svg version="1.1" id="圖層_1" xmlns="http://www.w3.org/2000/svg" xmlns:xlink="http://www.w3.org/1999/xlink" x="0px" y="0px"
	 viewBox="0 0 35 18.5" style="enable-background:new 0 0 35 18.5;" xml:space="preserve">
<style type="text/css">
	.st0{fill:#FFFFFF;}
</style>
<path id="icon-team" class="st0" d="M30.5,9.8c1.8-1.4,2-4,0.6-5.8c-1.4-1.8-4-2-5.8-0.6s-2,4-0.6,5.8c0.2,0.2,0.4,0.4,0.6,0.6
	c-0.7,0.3-1.4,0.7-2,1.2c-0.8-0.7-1.8-1.2-2.9-1.6c2.3-1.6,2.9-4.8,1.3-7.2s-4.8-2.9-7.2-1.3s-2.9,4.8-1.3,7.2
	c0.4,0.5,0.8,1,1.3,1.3c-1,0.4-2,0.9-2.8,1.6c-0.6-0.5-1.3-0.9-2-1.2c1.8-1.4,2-4,0.6-5.8s-4-2-5.8-0.6s-2,4-0.6,5.8
	c0.2,0.2,0.4,0.4,0.6,0.6C1.8,10.9,0,13.5,0,16.4v0.5c0,0.1,0.1,0.2,0.2,0.2h8.2c0,0.3-0.1,0.7-0.1,1v0.4h1.4v-0.4
	c0-4.2,3.3-7.6,7.5-7.7c0.2,0,0.3,0,0.5,0c4.2,0.1,7.5,3.6,7.5,7.7v0.4h1.4v-0.4c0-0.3,0-0.7-0.1-1h8.3c0.1,0,0.2-0.1,0.2-0.2v-0.5
	C35,13.5,33.2,10.9,30.5,9.8z M27.9,9.3h-0.1c-1.5,0-2.7-1.3-2.7-2.8s1.3-2.7,2.8-2.7s2.7,1.3,2.7,2.8C30.6,8.1,29.4,9.3,27.9,9.3z
	 M33.5,15.6h-7.3c-0.4-1.4-1-2.6-2-3.7c1-0.8,2.3-1.3,3.6-1.3h0.1C30.8,10.7,33.2,12.8,33.5,15.6L33.5,15.6z M21.2,5.2
	c0,2-1.6,3.6-3.6,3.8h-0.4c-2.1-0.1-3.7-1.9-3.5-4c0.1-2.1,1.9-3.7,4-3.5C19.7,1.5,21.2,3.2,21.2,5.2z M1.4,15.6
	c0.4-2.8,2.8-4.9,5.6-4.9h0.1c1.3,0,2.5,0.5,3.5,1.3c-0.9,1.1-1.6,2.3-2,3.7H1.4z M7.1,9.3H7C5.5,9.3,4.3,8,4.4,6.5s1.3-2.7,2.8-2.7
	s2.7,1.3,2.7,2.8C9.8,8.1,8.6,9.3,7.1,9.3L7.1,9.3z"/>
</svg>
