<svg xmlns="http://www.w3.org/2000/svg" width="35" height="18.497" viewBox="0 0 35 18.497">
  <path id="icon-team" d="M30.845,17.07a4.11,4.11,0,1,0-5.164,0,7.005,7.005,0,0,0-2.034,1.222,8.966,8.966,0,0,0-2.863-1.6,5.168,5.168,0,1,0-5.882,0,9.072,9.072,0,0,0-2.834,1.579,7,7,0,0,0-2-1.2,4.111,4.111,0,1,0-5.166,0A7.106,7.106,0,0,0,.375,23.694v.454a.179.179,0,0,0,.177.176H8.781a9.218,9.218,0,0,0-.056,1.011v.433h1.383v-.433a7.778,7.778,0,0,1,7.479-7.726,2.738,2.738,0,0,0,.475,0,7.78,7.78,0,0,1,7.5,7.725v.433h1.412v-.433a9.226,9.226,0,0,0-.057-1.011H35.2a.179.179,0,0,0,.177-.176v-.455A7.146,7.146,0,0,0,30.845,17.07Zm-2.526-.488h-.108a2.711,2.711,0,1,1,.108,0Zm5.6,6.338H26.64a9.207,9.207,0,0,0-1.979-3.653,5.709,5.709,0,0,1,3.561-1.286H28.3A5.7,5.7,0,0,1,33.916,22.92ZM21.6,12.44A3.771,3.771,0,0,1,18.05,16.2h-.442A3.771,3.771,0,1,1,21.6,12.44ZM1.8,22.92A5.7,5.7,0,0,1,7.418,17.98H7.5a5.68,5.68,0,0,1,3.526,1.259,9.188,9.188,0,0,0-2,3.681Zm5.71-6.338H7.407a2.711,2.711,0,1,1,.108,0Z" transform="translate(-0.375 -7.271)" fill="#808695"/>
</svg>
