<svg xmlns="http://www.w3.org/2000/svg" width="21" height="21" viewBox="0 0 21 21">
    <defs>
        <style>
            .cls-1{fill:#ea721a}.cls-2{clip-path:url(#clip-path)}
        </style>
        <clipPath id="clip-path">
            <circle id="icon-level" cx="10.5" cy="10.5" r="10.5" class="cls-1" transform="translate(542 555)"/>
        </clipPath>
    </defs>
    <g id="Mask_Group_1" class="cls-2" data-name="Mask Group 1" transform="translate(-542 -555)">
        <g id="icon_level" transform="translate(543.876 555)">
            <path id="Path_1314" d="M5.089 10.482a2.794 2.794 0 0 1-.954-.706L2.743 12.8a.248.248 0 0 0 0 .277.277.277 0 0 0 .286.086l1.039-.277a1.383 1.383 0 0 1 .353 0 1.335 1.335 0 0 1 1.183.668l.467.954a.277.277 0 0 0 .5 0l2.27-4.768a1.726 1.726 0 0 0-.687.372 2.861 2.861 0 0 1-3.065.37z" class="cls-1" data-name="Path 1314" transform="translate(-.793 6.34)"/>
            <path id="Path_1315" d="M11.581 9.8a2.861 2.861 0 0 1-4.034.267 1.726 1.726 0 0 0-.686-.367l2.27 4.768a.277.277 0 0 0 .5 0l.467-.954a1.335 1.335 0 0 1 1.192-.715 1.383 1.383 0 0 1 .353 0l1.039.277a.277.277 0 0 0 .286-.086.248.248 0 0 0 0-.277z" class="cls-1" data-name="Path 1315" transform="translate(2.327 6.311)"/>
            <path id="Path_1316" d="M18.065 9.057a2.594 2.594 0 0 1-.839-3.509 1.564 1.564 0 0 0-.143-1.85 1.736 1.736 0 0 0-1.85-.544 2.861 2.861 0 0 1-3.395-1.564 1.755 1.755 0 0 0-3.2 0 2.861 2.861 0 0 1-3.399 1.554 1.736 1.736 0 0 0-1.85.544 1.564 1.564 0 0 0-.143 1.85 2.594 2.594 0 0 1-.839 3.509 1.583 1.583 0 0 0-.753 1.736 1.659 1.659 0 0 0 1.421 1.259 2.7 2.7 0 0 1 2.394 2.8 1.612 1.612 0 0 0 .954 1.621 1.755 1.755 0 0 0 1.907-.277 2.861 2.861 0 0 1 3.767 0 1.755 1.755 0 0 0 1.903.28 1.612 1.612 0 0 0 1-1.621 2.7 2.7 0 0 1 2.346-2.861 1.659 1.659 0 0 0 1.469-1.2 1.583 1.583 0 0 0-.75-1.727zM10.236 14.3A5.531 5.531 0 0 1 4.6 8.914a5.531 5.531 0 0 1 5.636-5.4 5.531 5.531 0 0 1 5.636 5.4 5.531 5.531 0 0 1-5.636 5.386z" class="cls-1" data-name="Path 1316" transform="translate(-1.611 -.551)"/>
            <ellipse id="Ellipse_102" cx="4.587" cy="4.387" class="cls-1" data-name="Ellipse 102" rx="4.587" ry="4.387" transform="translate(4.038 3.976)"/>
        </g>
    </g>
</svg>
