<?xml version="1.0" encoding="utf-8"?>
<!-- Generator: Adobe Illustrator 22.0.1, SVG Export Plug-In . SVG Version: 6.00 Build 0)  -->
<svg version="1.1" id="圖層_1" xmlns="http://www.w3.org/2000/svg" xmlns:xlink="http://www.w3.org/1999/xlink" x="0px" y="0px"
	 viewBox="0 0 46 46" style="enable-background:new 0 0 46 46;" xml:space="preserve">
<style type="text/css">
	.st0{fill:#FFD100;}
	.st1{fill:#FFFFFF;}
</style>
<circle id="Ellipse_1" class="st0" cx="23" cy="23" r="23"/>
<g>
	<path class="st1" d="M14.9,33.8c-0.4,0-0.8-0.1-1.1-0.4l-6.7-6.7c-0.4-0.4-0.6-1.1-0.3-1.6C7.1,24.4,7.6,24,8.2,24h29.6
		c0.8,0,1.5,0.7,1.5,1.5S38.6,27,37.8,27h-26l4.2,4.2c0.6,0.6,0.6,1.5,0,2.1C15.7,33.6,15.3,33.8,14.9,33.8z"/>
	<path class="st1" d="M37.8,20H8.2c-0.8,0-1.5-0.7-1.5-1.5S7.4,17,8.2,17h26L30,12.8c-0.6-0.6-0.6-1.5,0-2.1c0.6-0.6,1.5-0.6,2.1,0
		l6.7,6.7c0.4,0.4,0.6,1.1,0.3,1.6S38.4,20,37.8,20z"/>
</g>
</svg>
