<?xml version="1.0" encoding="utf-8"?>
<!-- Generator: Adobe Illustrator 22.0.1, SVG Export Plug-In . SVG Version: 6.00 Build 0)  -->
<svg version="1.1" id="圖層_1" xmlns="http://www.w3.org/2000/svg" xmlns:xlink="http://www.w3.org/1999/xlink" x="0px" y="0px"
	 viewBox="0 0 115 115" style="enable-background:new 0 0 115 115;" xml:space="preserve">
<style type="text/css">
	.st0{fill:#FFFFFF;}
</style>
<path class="st0" d="M57.5,0C25.8,0,0,25.8,0,57.5C0,89.2,25.8,115,57.5,115c31.7,0,57.5-25.8,57.5-57.5C115,25.8,89.2,0,57.5,0z
	 M12,57.5c0-10.4,3.5-20,9.4-27.6l63.7,63.7c-7.7,5.9-17.2,9.4-27.6,9.4C32.4,103,12,82.6,12,57.5z M93.6,85.1L29.9,21.4
	c7.7-5.9,17.2-9.4,27.6-9.4C82.6,12,103,32.4,103,57.5C103,67.9,99.5,77.5,93.6,85.1z"/>
</svg>
