<svg id="圖層_2" data-name="圖層 2" xmlns="http://www.w3.org/2000/svg" viewBox="0 0 20 20"><defs><style>.cls-1{fill:#64656a;}</style></defs><title>icon-withdrawal 複本</title><path class="cls-1" d="M18.2,17.37l-2.09-2.69a3.1,3.1,0,0,0,1.66-1.23,4.09,4.09,0,0,0,.05-2.91A7.53,7.53,0,0,1,17.59,9a7.72,7.72,0,0,1,.23-1.59,4.12,4.12,0,0,0-.05-2.9A4.13,4.13,0,0,0,15.23,3a7.44,7.44,0,0,1-1.44-.57,6.79,6.79,0,0,1-1.15-.93A4.14,4.14,0,0,0,10,0,4.14,4.14,0,0,0,7.36,1.46a6.79,6.79,0,0,1-1.15.93A6.82,6.82,0,0,1,4.77,3,4.14,4.14,0,0,0,2.24,4.48a4,4,0,0,0-.06,2.9A7.72,7.72,0,0,1,2.41,9a7.73,7.73,0,0,1-.23,1.58,4.12,4.12,0,0,0,0,2.9A3.13,3.13,0,0,0,3.9,14.68L1.8,17.37a.35.35,0,0,0,.06.49.37.37,0,0,0,.25.07l2.47-.31.61,2.13a.32.32,0,0,0,.26.24h.07a.37.37,0,0,0,.27-.13L8,17a3.18,3.18,0,0,0,2,.9,3.18,3.18,0,0,0,2-.9l2.2,2.84a.37.37,0,0,0,.27.13h.07a.32.32,0,0,0,.26-.24l.61-2.13,2.47.31a.34.34,0,0,0,.38-.3A.36.36,0,0,0,18.2,17.37ZM5.66,18.91l-.5-1.76a.35.35,0,0,0-.38-.25l-1.93.24,1.73-2.22.2.06a7,7,0,0,1,1.43.56,7.31,7.31,0,0,1,1.15.93l.11.11ZM10,17.24A3.56,3.56,0,0,1,7.82,16a7.38,7.38,0,0,0-1.27-1A7.89,7.89,0,0,0,5,14.32,3.58,3.58,0,0,1,2.83,13.1a3.61,3.61,0,0,1,0-2.41A7.68,7.68,0,0,0,3.1,9a7.77,7.77,0,0,0-.25-1.73,3.61,3.61,0,0,1,0-2.41A3.58,3.58,0,0,1,5,3.61,7.89,7.89,0,0,0,6.55,3,7.38,7.38,0,0,0,7.82,2,3.56,3.56,0,0,1,10,.69,3.56,3.56,0,0,1,12.18,2a7.38,7.38,0,0,0,1.27,1A7.89,7.89,0,0,0,15,3.61a3.58,3.58,0,0,1,2.15,1.22,3.61,3.61,0,0,1,0,2.41A7.77,7.77,0,0,0,16.9,9a7.68,7.68,0,0,0,.25,1.72,3.61,3.61,0,0,1,0,2.41A3.58,3.58,0,0,1,15,14.32a7.89,7.89,0,0,0-1.57.62,7.38,7.38,0,0,0-1.27,1A3.56,3.56,0,0,1,10,17.24Zm5.22-.34a.35.35,0,0,0-.38.25l-.5,1.76-1.81-2.33.11-.11a7.31,7.31,0,0,1,1.15-.93A6.82,6.82,0,0,1,15.23,15l.19-.06,1.73,2.22Z"/><path class="cls-1" d="M10,2.76A6.21,6.21,0,1,0,16.21,9,6.21,6.21,0,0,0,10,2.76Zm0,11.72A5.52,5.52,0,1,1,15.52,9,5.52,5.52,0,0,1,10,14.48Z"/><path class="cls-1" d="M14,7.53a.7.7,0,0,0-.56-.29H11.31l-.65-2a.7.7,0,0,0-.88-.44.67.67,0,0,0-.43.44l-.66,2H6.58a.69.69,0,0,0-.41,1.25L7.88,9.73l-.65,2a.69.69,0,0,0,1.06.77L10,11.27l1.71,1.24a.67.67,0,0,0,.81,0,.66.66,0,0,0,.25-.77l-.65-2,1.71-1.24A.69.69,0,0,0,14,7.53ZM11.51,9.32a.36.36,0,0,0-.13.39L12.12,12,10.2,10.56a.36.36,0,0,0-.4,0L7.89,12l.73-2.24a.36.36,0,0,0-.13-.39L6.58,7.93H8.94a.35.35,0,0,0,.33-.24L10,5.45l.73,2.24a.35.35,0,0,0,.33.24h2.36Z"/></svg>