<svg id="圖層_2" data-name="圖層 2" xmlns="http://www.w3.org/2000/svg" viewBox="0 0 20 20"><defs><style>.cls-1{fill:#64656a;}</style></defs><title>icon-withdrawal</title><path class="cls-1" d="M2,0V2.67h.67V5.33H6V7.86L4.76,9.1a.32.32,0,0,0-.09.23v4.34a.23.23,0,0,0,0,.11l1.64,4.61v1.28a.34.34,0,0,0,.34.33h4a.33.33,0,0,0,.33-.33v-5a.28.28,0,0,0,0-.13l-.8-1.87h3.5a.34.34,0,0,0,.33-.34v-7h3.33V2.67H18V0Zm8.33,19.33H7v-.66h3.33Zm0-4.6V18H6.9L5.33,13.61V9.47L6,8.8v3.53a.34.34,0,0,0,.33.34H7.67V14h.66V10.67a.34.34,0,0,1,.34-.34H9a.34.34,0,0,1,.33.34v1.66a.28.28,0,0,0,0,.13ZM10,6.33a2.64,2.64,0,0,0,2-.91v5.25H10a1,1,0,0,0-1-1H8.67A1,1,0,0,0,8,9.93V5.42A2.64,2.64,0,0,0,10,6.33ZM8,4H12A2,2,0,0,1,8,4Zm-.7,5.33v2h.34V12h-1V4h.66Zm6,2.67H10v-.67h2.67V4h.66Zm3.34-7.33H14V4h2V3.33H4V4H6v.67H3.33v-2H16.67ZM17.33,2H2.67V.67H17.33Z"/><path class="cls-1" d="M10,9A1,1,0,1,0,9,8,1,1,0,0,0,10,9Zm0-1.33A.33.33,0,1,1,9.67,8,.33.33,0,0,1,10,7.67Z"/></svg>