<svg id="圖層_2" data-name="圖層 2" xmlns="http://www.w3.org/2000/svg" viewBox="0 0 20 20"><defs><style>.cls-1{fill:#64656a;}</style></defs><title>icon-recharge</title><path class="cls-1" d="M.33,14l1.35.66a6.73,6.73,0,0,0,1.87,2.63v2.08a.59.59,0,0,0,.59.59H6.48A.58.58,0,0,0,7,19.6l.26-.79.36,0h3.51l.35,0,.27.79a.58.58,0,0,0,.55.4h2.35a.58.58,0,0,0,.58-.59V17.33a6.52,6.52,0,0,0,2.35-5,5.63,5.63,0,0,0,0-.58h1.24A1.18,1.18,0,0,0,20,10.59V10a1.76,1.76,0,0,0-1.76-1.76.59.59,0,0,0,0,1.17.59.59,0,0,1,.59.59v.59H17.38a6.34,6.34,0,0,0-1.29-2.41,4.67,4.67,0,0,0,1.53-3.45,4.69,4.69,0,1,0-9.38,0A4.58,4.58,0,0,0,8.39,5.9H7.25a2.37,2.37,0,0,0-2-1.18H3A.58.58,0,0,0,2.49,5a.56.56,0,0,0-.07.53l.79,2.17A6.62,6.62,0,0,0,1.92,9.41H.59A.59.59,0,0,0,0,10v3.52A.59.59,0,0,0,.33,14ZM12.93,1.17A3.54,3.54,0,1,1,9.41,4.73,3.55,3.55,0,0,1,12.93,1.17ZM1.17,10.59H2.29a.6.6,0,0,0,.54-.36A5.35,5.35,0,0,1,4.27,8.3a.6.6,0,0,0,.18-.65L3.81,5.9H5.2a1.21,1.21,0,0,1,1.14.82.58.58,0,0,0,.63.4,5.21,5.21,0,0,1,.69,0H8.87a4.69,4.69,0,0,0,4.06,2.34,4.63,4.63,0,0,0,2.2-.55,5.3,5.3,0,0,1,1.21,2.41v0a5,5,0,0,1,.11,1,5.32,5.32,0,0,1-2.12,4.24.59.59,0,0,0-.23.46v1.79H12.77L12.48,18a.58.58,0,0,0-.63-.4,4.31,4.31,0,0,1-.68.08H7.66A4.18,4.18,0,0,1,7,17.58a.6.6,0,0,0-.64.4l-.28.85H4.73V17a.57.57,0,0,0-.24-.46,5.43,5.43,0,0,1-1.79-2.5.59.59,0,0,0-.29-.33l-1.24-.6Z"/><path class="cls-1" d="M5.9,10a.59.59,0,1,1-.59-.59A.59.59,0,0,1,5.9,10Z"/><path class="cls-1" d="M13.78,3.29a1.19,1.19,0,0,1,.34.33.78.78,0,0,1,.14.35.12.12,0,0,1-.11.11h-.63l-.11,0L13.32,4s0,0-.06-.06a.38.38,0,0,0-.17-.1.67.67,0,0,0-.26,0,.83.83,0,0,0-.34.06.19.19,0,0,0-.13.19.16.16,0,0,0,.08.15.76.76,0,0,0,.25.1l.6.13a1.75,1.75,0,0,1,.81.35.89.89,0,0,1,.25.68.85.85,0,0,1-.29.67,1.49,1.49,0,0,1-.78.35v.34a.14.14,0,0,1-.13.13h-.63a.13.13,0,0,1-.1,0,.13.13,0,0,1,0-.09V6.45a1.55,1.55,0,0,1-.53-.21,1.31,1.31,0,0,1-.36-.34.86.86,0,0,1-.13-.4.09.09,0,0,1,0-.07.11.11,0,0,1,.07,0h.64a.28.28,0,0,1,.18.06l.08.09a.57.57,0,0,0,.19.13.94.94,0,0,0,.3.05c.41,0,.61-.08.61-.26a.15.15,0,0,0-.09-.13.91.91,0,0,0-.24-.1l-.49-.11-.22,0a1.36,1.36,0,0,1-.73-.36,1,1,0,0,1-.23-.67.85.85,0,0,1,.25-.61,1.24,1.24,0,0,1,.67-.38V2.71a.18.18,0,0,1,0-.09.13.13,0,0,1,.1,0h.63a.1.1,0,0,1,.09,0,.12.12,0,0,1,0,.09v.37A1.4,1.4,0,0,1,13.78,3.29Z"/></svg>