<svg id="圖層_2" data-name="圖層 2" xmlns="http://www.w3.org/2000/svg" viewBox="0 0 20 20"><defs><style>.cls-1{fill:#64656a;}</style></defs><title>icon-account</title><path class="cls-1" d="M18.25,1.49H1.75A1.75,1.75,0,0,0,0,3.23V14.79a1.76,1.76,0,0,0,.39,1.1l.2.21.07,0h0a.09.09,0,0,0,.07,0l.44-.5a.08.08,0,0,0,0-.07.09.09,0,0,0,0-.07.89.89,0,0,1-.3-.66V3.23a.89.89,0,0,1,.89-.89h16.5a.89.89,0,0,1,.89.89V14.79a1.28,1.28,0,0,1-.05.27.1.1,0,0,0,0,.12,1.51,1.51,0,0,1,.51.4.09.09,0,0,0,.08,0h0a.16.16,0,0,0,.08-.06A1,1,0,0,0,20,15V3.23A1.75,1.75,0,0,0,18.25,1.49Z"/><rect class="cls-1" x="1.75" y="2.9" width="0.66" height="0.66"/><rect class="cls-1" x="3.07" y="2.9" width="0.66" height="0.66"/><rect class="cls-1" x="4.39" y="2.9" width="0.66" height="0.66"/><rect class="cls-1" x="1.75" y="4.22" width="16.5" height="0.66"/><path class="cls-1" d="M16.42,8.42a1.89,1.89,0,1,0-1.89,1.9A1.9,1.9,0,0,0,16.42,8.42Zm-3.24,0a1.35,1.35,0,1,1,1.35,1.35A1.35,1.35,0,0,1,13.18,8.42Z"/><path class="cls-1" d="M15.15,7.69l-.89.89-.35-.35-.38.39.54.54a.28.28,0,0,0,.38,0l1.08-1.08Z"/><rect class="cls-1" x="12.13" y="10.86" width="4.8" height="0.54"/><rect class="cls-1" x="12.13" y="11.94" width="4.8" height="0.54"/><path class="cls-1" d="M8.4,12.75a1.11,1.11,0,0,1-.49-1.5A1.43,1.43,0,0,1,8.07,11a2.71,2.71,0,0,0,.71-1.83V8A2.88,2.88,0,0,0,7.21,5.38,3,3,0,0,0,6,5.11a2.53,2.53,0,0,0-.94.18,2.34,2.34,0,0,0-.78.45,2.71,2.71,0,0,0-1,2.11V9.18A2.73,2.73,0,0,0,4,11a1.11,1.11,0,0,1,.08,1.38,1.06,1.06,0,0,1-.4.36l-.11.05-1.49.59A1.75,1.75,0,0,0,1,15v3.07a.42.42,0,0,0,.43.42h9.24a.37.37,0,0,0,.17,0,3.38,3.38,0,0,0,2.41-1.62H15a.42.42,0,0,0,.3-.12l.36-.36.36.36a.42.42,0,0,0,.3.12h.66a.42.42,0,0,0,.3-.12l.36-.36.36.36a.42.42,0,0,0,.3.12h.66a.44.44,0,0,0,.36-.19l.66-1a.44.44,0,0,0,0-.47l-.66-1a.44.44,0,0,0-.36-.19H13.24a3.39,3.39,0,0,0-2.92-1.65,2.65,2.65,0,0,0-1.6.5l-.23-.08ZM18.46,16l-.57-.57a.41.41,0,0,0-.3-.12.42.42,0,0,0-.3.12l-.5.54-.31,0-.57-.57a.44.44,0,0,0-.6,0l-.5.54H13a.42.42,0,0,0-.4.27,2.49,2.49,0,0,1-2.24,1.38,2.22,2.22,0,0,1,0-4.43,2.48,2.48,0,0,1,2.24,1.39.43.43,0,0,0,.4.26l5.68,0,.41.61-.33.56ZM4.81,12.86a2,2,0,0,0-.17-2.43,1.77,1.77,0,0,1-.3-.45,1.87,1.87,0,0,1-.18-.8V7.85a1.88,1.88,0,0,1,.7-1.46,1.62,1.62,0,0,1,.53-.3A1.78,1.78,0,0,1,6,6H6.1a1.87,1.87,0,0,1,.73.18A2,2,0,0,1,7.92,8V9.18a1.86,1.86,0,0,1-.48,1.25,2,2,0,0,0-.51,1.43,1.93,1.93,0,0,0,.66,1.36,1.69,1.69,0,0,0,.38.27,3.07,3.07,0,0,0-.71,2.12,3.11,3.11,0,0,0,.94,2.05H1.85V15a.89.89,0,0,1,.56-.83l1.49-.6.17-.07A1.89,1.89,0,0,0,4.81,12.86Z"/><path class="cls-1" d="M9.67,14.46a1,1,0,0,0-1,1,1,1,0,0,0,2,0A1,1,0,0,0,9.67,14.46Zm0,1.32a.33.33,0,0,1-.33-.33.33.33,0,0,1,.66,0A.33.33,0,0,1,9.67,15.78Z"/></svg>