<svg xmlns="http://www.w3.org/2000/svg" viewBox="0 0 16 10"><defs><style>.cls-1{fill:#707070;}</style></defs><title>icon-hide</title><g id="icon"><path class="cls-1" d="M14.18,5.07l-.94-1.24A7.81,7.81,0,0,0,14.18,2a.82.82,0,0,0-.29-1,.54.54,0,0,0-.77.36A5.54,5.54,0,0,1,7.94,5.19,5.56,5.56,0,0,1,2.76,1.43.53.53,0,0,0,2,1.07a.82.82,0,0,0-.29,1A7.23,7.23,0,0,0,2.74,4L1.9,5.07a.87.87,0,0,0,0,1,.52.52,0,0,0,.4.21.55.55,0,0,0,.42-.23l.89-1.18a6.82,6.82,0,0,0,1,.77L4,7.1a.85.85,0,0,0,.23,1,.49.49,0,0,0,.28.09A.55.55,0,0,0,5,7.81l.69-1.58a6.6,6.6,0,0,0,1.65.38V8.27A.66.66,0,0,0,7.94,9a.67.67,0,0,0,.58-.73V6.61a6.18,6.18,0,0,0,1.8-.45L11,7.81a.57.57,0,0,0,.51.38.51.51,0,0,0,.28-.09.84.84,0,0,0,.22-1l-.66-1.51a6.18,6.18,0,0,0,1-.78l1,1.28a.52.52,0,0,0,.41.23.5.5,0,0,0,.4-.21A.89.89,0,0,0,14.18,5.07Z"/></g></svg>