<svg xmlns="http://www.w3.org/2000/svg" xmlns:xlink="http://www.w3.org/1999/xlink" width="24" height="24" viewBox="0 0 24 24">
  <defs>
    <filter id="Path_1044" x="0" y="0" width="24" height="24" filterUnits="userSpaceOnUse">
      <feOffset input="SourceAlpha"/>
      <feGaussianBlur stdDeviation="1" result="blur"/>
      <feFlood flood-opacity="0.302"/>
      <feComposite operator="in" in2="blur"/>
      <feComposite in="SourceGraphic"/>
    </filter>
  </defs>
  <g id="icon-arrowright" transform="translate(0.398 0.398)">
    <g id="Group_731" data-name="Group 731" transform="translate(2.602 2.602)">
      <g transform="matrix(1, 0, 0, 1, -3, -3)" filter="url(#Path_1044)">
        <path id="Path_1044-2" data-name="Path 1044" d="M9,0A9,9,0,1,1,0,9,9,9,0,0,1,9,0Z" transform="translate(3 3)" fill="#fff"/>
      </g>
    </g>
    <path id="Polygon_1" data-name="Polygon 1" d="M2.553.894a.5.5,0,0,1,.894,0L5.638,5.276A.5.5,0,0,1,5.191,6H.809a.5.5,0,0,1-.447-.724Z" transform="translate(15.526 8.372) rotate(90)" fill="#c1c1c1"/>
  </g>
</svg>
