<svg id="圖層_1" data-name="圖層 1" xmlns="http://www.w3.org/2000/svg" viewBox="0 0 16 16"><defs><style>.cls-1{fill:#f13131;}</style></defs><title>icon</title><path class="cls-1" d="M13,1a.5.5,0,0,0-.5.5V3.33A6.49,6.49,0,0,0,1.5,8a.5.5,0,1,0,1,0,5.5,5.5,0,0,1,9.56-3.71L9.84,5a.5.5,0,0,0,.32.95l3-1a.5.5,0,0,0,.34-.48v-3A.5.5,0,0,0,13,1Z"/><path class="cls-1" d="M14,7.5a.5.5,0,0,0-.5.5,5.5,5.5,0,0,1-9.56,3.71L6.16,11A.5.5,0,1,0,5.84,10l-3,1a.5.5,0,0,0-.34.48v3a.5.5,0,0,0,1,0V12.67A6.49,6.49,0,0,0,14.5,8,.5.5,0,0,0,14,7.5Z"/></svg>