<svg id="圖層_1" data-name="圖層 1" xmlns="http://www.w3.org/2000/svg" viewBox="0 0 38 38"><defs><style>.cls-1{fill:#707070;}</style></defs><title>icon</title><path class="cls-1" d="M8.08,31.95a.64.64,0,0,0,.63.69h7.56V26.27s-.11-1,.88-1H20.3a1,1,0,0,1,1.1,1v6.34h7.4a.79.79,0,0,0,.79-.86V20L19.15,10.51,8.08,20Z"/><path class="cls-1" d="M4,19.14s.94,1.78,3,0L19.25,8.5,30.74,19.08c2.37,1.76,3.26,0,3.26,0L19.25,5.36Z"/><polygon class="cls-1" points="30.46 8.48 27.5 8.48 27.52 12.16 30.46 14.72 30.46 8.48"/></svg>