<svg id="圖層_1" data-name="圖層 1" xmlns="http://www.w3.org/2000/svg" viewBox="0 0 22 22"><defs><style>.cls-1{fill:#ff7e56;}.cls-2{fill:#fff;}</style></defs><title>icon</title><circle class="cls-1" cx="11" cy="11" r="11"/><path class="cls-2" d="M15.47,12a7.07,7.07,0,0,0-1.71-3.9A4.68,4.68,0,0,1,12.5,5.25.25.25,0,0,0,12.36,5a.25.25,0,0,0-.26,0A6.36,6.36,0,0,0,9.76,8.44,11.07,11.07,0,0,0,9.5,11c-1-.22-1.25-1.74-1.25-1.76A.25.25,0,0,0,7.89,9c-.05,0-1.31.67-1.39,3.22,0,.08,0,.17,0,.26A4.51,4.51,0,0,0,11,17h0a4.51,4.51,0,0,0,4.49-4.5C15.5,12.38,15.47,12,15.47,12Z"/></svg>