<svg id="Group_1595" data-name="Group 1595" xmlns="http://www.w3.org/2000/svg" width="12" height="12" viewBox="0 0 12 12">
  <path id="Path_1124" data-name="Path 1124" d="M17.262,114.3H6.118a.422.422,0,0,0-.418.422.428.428,0,0,0,.418.422H17.272a.422.422,0,0,0,.418-.422A.43.43,0,0,0,17.262,114.3Z" transform="translate(-5.69 -103.143)" fill="#31a4f1"/>
  <path id="Path_1125" data-name="Path 1125" d="M5.61,14.21l-.01,2a.435.435,0,0,0,.123.308.412.412,0,0,0,.3.123l1.995-.01a.412.412,0,0,0,.3-.123L15.2,9.625a.434.434,0,0,0,0-.607L13.229,7.023a.434.434,0,0,0-.607,0L11.245,8.411l-5.511,5.5A.458.458,0,0,0,5.61,14.21Zm7.32-6.282,1.388,1.388-.781.781L12.149,8.71ZM6.464,14.4l5.079-5.079L12.931,10.7,7.852,15.773l-1.4.01Z" transform="translate(-5.6 -6.9)" fill="#31a4f1"/>
</svg>
