<svg xmlns="http://www.w3.org/2000/svg" xmlns:xlink="http://www.w3.org/1999/xlink" width="22" height="22" viewBox="0 0 22 22">
  <defs>
    <clipPath id="clip-path">
      <circle id="icon-amount" cx="6" cy="6" r="6" transform="translate(542 389)" fill="#fff"/>
    </clipPath>
  </defs>
  <g id="icon-amount-2" data-name="icon-amount" transform="translate(-537 -162)">
    <circle id="icon-amount-3" data-name="icon-amount" cx="11" cy="11" r="11" transform="translate(537 162)" fill="#f13131"/>
    <g id="Mask_Group_45" data-name="Mask Group 45" transform="translate(0 -222)" clip-path="url(#clip-path)">
      <g id="icon_amount" transform="translate(541.466 388.455)">
        <path id="Path_1062" data-name="Path 1062" d="M7.358,8.521A.546.546,0,0,0,7.2,8.406a1.889,1.889,0,0,0-.4-.142V9.356A.748.748,0,0,0,7.4,9.039h0a.5.5,0,0,0,.044-.333.338.338,0,0,0-.082-.186Z" fill="#fff"/>
        <path id="Path_1063" data-name="Path 1063" d="M7.391,9.023Z" fill="#fff"/>
        <path id="Path_1064" data-name="Path 1064" d="M5.759,6.807A.4.4,0,0,0,5.688,7a.458.458,0,0,0,0,.207.333.333,0,0,0,.126.142,1,1,0,0,0,.191.1l.186.066V6.55A.731.731,0,0,0,5.759,6.807Z" fill="#fff"/>
        <path id="Path_1065" data-name="Path 1065" d="M7.4,9.012Z" fill="#fff"/>
        <path id="Path_1066" data-name="Path 1066" d="M7.4,9Z" fill="#fff"/>
        <path id="Path_1067" data-name="Path 1067" d="M7.172,3.16c.9-.77,1.5-2.495,1.135-2.571a8.8,8.8,0,0,0-2.08.42C5.491,1.092,4.694.2,4.247.7c-.366.393.262,1.883,1.212,2.522-2.92,1.457-7.025,8.734.136,9.279C15.529,13.242,10.568,4.574,7.172,3.16Zm.852,5.759a1.059,1.059,0,0,1-.382.715,1.523,1.523,0,0,1-.824.295v.317a.3.3,0,0,1-.1.224.289.289,0,0,1-.317.049.3.3,0,0,1-.169-.267V9.907l-.147-.033a1.43,1.43,0,0,1-.715-.442,1.3,1.3,0,0,1-.218-.366l-.038-.109a.546.546,0,0,1,0-.1A.3.3,0,0,1,5.147,8.7a.289.289,0,0,1,.546.044.132.132,0,0,0,.033.1.66.66,0,0,0,.044.1A.753.753,0,0,0,5.9,9.1a.862.862,0,0,0,.371.207V8.128A2.058,2.058,0,0,1,5.5,7.795a.9.9,0,0,1-.257-.317.993.993,0,0,1-.087-.42,1.021,1.021,0,0,1,.087-.426,1.043,1.043,0,0,1,.24-.333,1.452,1.452,0,0,1,.786-.355V5.617a.3.3,0,0,1,.1-.224.289.289,0,0,1,.317-.049.3.3,0,0,1,.169.267v.328H6.97a1.43,1.43,0,0,1,.759.377,1.13,1.13,0,0,1,.235.338,1.092,1.092,0,0,1,.044.109.666.666,0,0,1,.027.1.3.3,0,0,1,0,.169.289.289,0,0,1-.546,0,.12.12,0,0,0-.033-.1.59.59,0,0,0-.186-.24.939.939,0,0,0-.4-.158V7.631a3.662,3.662,0,0,1,.5.147,1.168,1.168,0,0,1,.606.48h0c.038.071,0,.038,0,0A1.092,1.092,0,0,1,8.024,8.919Z" fill="#fff"/>
        <path id="Path_1068" data-name="Path 1068" d="M7.385,9.028Z" fill="#fff"/>
      </g>
    </g>
  </g>
</svg>
