<svg xmlns="http://www.w3.org/2000/svg" width="22" height="22" viewBox="0 0 22 22">
  <g id="icon-change" transform="translate(-1237 -162)">
    <path id="icon-account" d="M11,0A11,11,0,1,1,0,11,11,11,0,0,1,11,0Z" transform="translate(1237 162)" fill="#f13131"/>
    <g id="icon_change" transform="translate(1241.457 165.668)">
      <path id="Path_1072" data-name="Path 1072" d="M11.779,7.776c0,1.045-.626,1.1-.746,1.1H1.83L3.822,6.946,3.278,6.4.665,9.03a.371.371,0,0,0,0,.55l2.612,2.6.544-.55L1.841,9.646h9.2c.517,0,1.5-.374,1.5-1.87v-1.1h-.757Z" transform="translate(0 -0.063)" fill="#fff"/>
      <path id="Path_1073" data-name="Path 1073" d="M1.308,5.513c0-1.045.626-1.1.746-1.1h9.2L9.265,6.349l.544.55,2.612-2.64a.371.371,0,0,0,0-.55l-2.612-2.6-.544.55,1.981,1.98H2.053c-.517-.022-1.5.352-1.5,1.87v1.1h.751Z" transform="translate(0)" fill="#fff"/>
    </g>
  </g>
</svg>
