<svg xmlns="http://www.w3.org/2000/svg" width="27" height="23.282" viewBox="0 0 27 23.282">
  <g id="icon-wechat" transform="translate(-10.5 -12.359)">
    <path id="Path_1139" data-name="Path 1139" d="M29.259,20.015A9.579,9.579,0,0,0,22.8,22.623a7.666,7.666,0,0,0-2.38,6.493c-.98-.121-1.872-.255-2.77-.33a1.722,1.722,0,0,0-.94.159c-.871.492-1.707,1.047-2.7,1.666.182-.822.3-1.541.508-2.234a.849.849,0,0,0-.387-1.123c-3.008-2.124-4.277-5.3-3.327-8.576a8.49,8.49,0,0,1,5.964-5.821,10,10,0,0,1,10.926,3.2A7.491,7.491,0,0,1,29.259,20.015ZM17.724,19a1.155,1.155,0,0,0-1.112-1.155,1.122,1.122,0,0,0-1.168,1.085,1.108,1.108,0,0,0,1.1,1.151A1.142,1.142,0,0,0,17.724,19Zm6.018-1.156a1.158,1.158,0,0,0-1.13,1.139,1.129,1.129,0,0,0,1.16,1.1,1.121,1.121,0,1,0-.03-2.242Z" fill="#FFF"/>
    <path id="Path_1140" data-name="Path 1140" d="M34.89,35.641a8.5,8.5,0,0,0-2.3-.965,12.873,12.873,0,0,0-2.392.447,7.989,7.989,0,0,1-6.482-2.115c-3.457-3.2-2.963-8.1,1.036-10.72a8.718,8.718,0,0,1,11.274,1.679A6.4,6.4,0,0,1,35.29,32.9c-.773.686-1.051,1.25-.555,2.154A2.637,2.637,0,0,1,34.89,35.641Zm-9.034-8.747a.934.934,0,1,0,.006-1.868.934.934,0,1,0-.006,1.868Zm5.823-1.866a.934.934,0,0,0-.926.893.921.921,0,1,0,1.84.08A.928.928,0,0,0,31.679,25.028Z" fill="#FFF"/>
  </g>
</svg>
